<svg width="16" height="6" viewBox="0 0 16 6" fill="none" xmlns="http://www.w3.org/2000/svg">
<path fill-rule="evenodd" clip-rule="evenodd" d="M15.031 2.01588V3.03088H1.93803V0.0778809H0.0090332V5.97088H1.93803V4.93788H15.031V5.97088H15.969V2.01588H15.031Z" fill="#9DB3BB"/>
<path d="M3.985 1.94C4.529 1.94 4.97 1.50572 4.97 0.97C4.97 0.434284 4.529 0 3.985 0C3.441 0 3 0.434284 3 0.97C3 1.50572 3.441 1.94 3.985 1.94Z" fill="#9DB3BB"/>
<path fill-rule="evenodd" clip-rule="evenodd" d="M13.9911 1.99807H6.01306V1.13207C6.01306 0.534072 6.65606 0.0490723 7.44706 0.0490723H12.5561C13.3491 0.0490723 13.9911 0.534072 13.9911 1.13207V1.99807V1.99807Z" fill="#9DB3BB"/>
</svg>
