<svg width="965" height="487" viewBox="0 0 965 487" fill="none" xmlns="http://www.w3.org/2000/svg">
<g clip-path="url(#clip0)">
<path opacity="0.3" d="M215.7 416.54C316.216 416.54 397.7 335.056 397.7 234.54C397.7 134.024 316.216 52.54 215.7 52.54C115.184 52.54 33.7 134.024 33.7 234.54C33.7 335.056 115.184 416.54 215.7 416.54Z" stroke="#FF9800" stroke-width="4" stroke-miterlimit="10" stroke-dasharray="12 12"/>
<path opacity="0.3" d="M695.7 380.54C796.216 380.54 877.7 299.056 877.7 198.54C877.7 98.0242 796.216 16.54 695.7 16.54C595.184 16.54 513.7 98.0242 513.7 198.54C513.7 299.056 595.184 380.54 695.7 380.54Z" stroke="#FF9800" stroke-width="4" stroke-miterlimit="10" stroke-dasharray="12 12"/>
<path d="M766.06 268.87C758.22 260.534 753.85 249.524 753.84 238.08C753.885 230.186 755.974 222.438 759.903 215.591C763.832 208.745 769.467 203.032 776.26 199.01C773.221 194.597 771.59 189.368 771.58 184.01C771.58 168.92 784.24 156.69 799.86 156.69C805.893 156.628 811.786 158.507 816.671 162.048C821.555 165.59 825.173 170.607 826.99 176.36C830.845 170.294 836.179 165.306 842.49 161.866C848.801 158.425 855.882 156.644 863.07 156.69C886.34 156.69 905.21 174.92 905.21 197.4C905.213 202.201 904.339 206.963 902.63 211.45C903.48 211.39 904.34 211.32 905.21 211.32C923.89 211.32 939.03 225.95 939.03 244C939.03 245.102 938.974 246.204 938.86 247.3C953.8 253.52 964.26 267.87 964.26 284.58C964.26 306.99 945.46 325.16 922.26 325.16C919.824 325.157 917.392 324.949 914.99 324.54C915.11 325.89 915.19 327.26 915.19 328.64C915.19 353.79 894.09 374.18 868.06 374.18C858.506 374.208 849.16 371.384 841.22 366.07C834.795 371.337 826.738 374.204 818.43 374.18C798.98 374.18 783.22 358.95 783.22 340.18C783.22 339.37 783.29 338.57 783.35 337.77H783.22C762.4 337.77 745.52 321.46 745.52 301.34C745.563 294.548 747.511 287.905 751.142 282.165C754.773 276.425 759.941 271.819 766.06 268.87V268.87Z" fill="url(#paint0_linear)"/>
<path d="M769.87 268.72C762.371 260.739 758.191 250.202 758.18 239.25C758.222 231.693 760.222 224.277 763.982 217.723C767.743 211.168 773.138 205.7 779.64 201.85C776.725 197.617 775.162 192.599 775.16 187.46C775.16 173.02 787.28 161.31 802.23 161.31C808.007 161.252 813.65 163.05 818.33 166.437C823.01 169.825 826.48 174.624 828.23 180.13C831.917 174.336 837.013 169.572 843.041 166.283C849.069 162.993 855.833 161.286 862.7 161.32C884.98 161.32 903.03 178.77 903.03 200.32C903.033 204.916 902.196 209.475 900.56 213.77C901.38 213.71 902.2 213.65 903.03 213.65C920.91 213.65 935.4 227.65 935.4 244.93C935.398 245.986 935.341 247.04 935.23 248.09C949.53 254.09 959.54 267.78 959.54 283.77C959.54 305.22 941.54 322.61 919.34 322.61C916.994 322.61 914.653 322.413 912.34 322.02C912.46 323.31 912.53 324.62 912.53 325.94C912.53 350.01 892.33 369.52 867.42 369.52C858.276 369.544 849.332 366.843 841.73 361.76C835.605 366.789 827.925 369.539 820 369.54C801.39 369.54 786.3 354.96 786.3 336.98C786.3 336.2 786.36 335.44 786.42 334.67H786.3C766.37 334.67 750.21 319.06 750.21 299.8C750.252 293.299 752.116 286.94 755.592 281.446C759.067 275.952 764.014 271.543 769.87 268.72V268.72Z" fill="#009688"/>
<path d="M852.7 223.13H839.51V465.36H852.7V223.13Z" fill="url(#paint1_linear)"/>
<path d="M849.98 223.13H842.68V465.36H849.98V223.13Z" fill="#795548"/>
<path d="M806.423 249.007L801.21 254.117L844.466 298.242L849.679 293.132L806.423 249.007Z" fill="#795548"/>
<path d="M889.813 299.122L844.973 330.59L849.166 336.565L894.006 305.098L889.813 299.122Z" fill="#795548"/>
<path d="M853.15 273.12C857.647 267.975 860.988 261.926 862.946 255.38C864.904 248.833 865.434 241.943 864.5 235.174C863.566 228.406 861.19 221.916 857.533 216.145C853.876 210.373 849.022 205.454 843.3 201.72C846.259 197.14 847.829 191.802 847.82 186.35C847.82 170.93 835.6 158.43 820.52 158.43C814.561 158.474 808.779 160.46 804.05 164.087C799.322 167.715 795.906 172.785 794.32 178.53C790.768 172.436 785.686 167.376 779.577 163.85C773.468 160.325 766.543 158.456 759.49 158.43C737.02 158.43 718.8 177.06 718.8 200.04C718.794 204.934 719.637 209.793 721.29 214.4C720.47 214.34 719.64 214.27 718.8 214.27C700.8 214.27 686.14 229.27 686.14 247.67C686.14 248.81 686.2 249.93 686.31 251.04C678.969 254.33 672.742 259.683 668.388 266.447C664.033 273.211 661.737 281.095 661.78 289.14C661.78 312.05 679.94 330.62 702.33 330.62C704.677 330.616 707.02 330.405 709.33 329.99C709.21 331.37 709.14 332.77 709.14 334.18C709.14 359.88 729.51 380.72 754.65 380.72C763.939 380.723 772.998 377.824 780.56 372.43C786.646 377.768 794.464 380.714 802.56 380.72C821.34 380.72 836.56 365.15 836.56 345.95C836.56 345.12 836.49 344.3 836.44 343.48H836.56C856.67 343.48 872.96 326.81 872.96 306.25C872.991 299.446 871.163 292.764 867.671 286.925C864.179 281.085 859.158 276.312 853.15 273.12V273.12Z" fill="url(#paint2_linear)"/>
<path d="M847.89 272.9C852.108 268.072 855.24 262.394 857.076 256.251C858.912 250.109 859.408 243.643 858.531 237.292C857.654 230.941 855.425 224.852 851.994 219.437C848.562 214.021 844.008 209.405 838.64 205.9C841.417 201.6 842.89 196.589 842.88 191.47C842.88 176.99 831.41 165.26 817.25 165.26C811.665 165.31 806.248 167.178 801.818 170.581C797.389 173.984 794.188 178.736 792.7 184.12C789.366 178.398 784.595 173.647 778.859 170.337C773.123 167.027 766.622 165.273 760 165.25C738.91 165.25 721.81 182.74 721.81 204.31C721.805 208.905 722.597 213.466 724.15 217.79C723.38 217.73 722.6 217.67 721.81 217.67C704.88 217.67 691.16 231.67 691.16 249.02C691.16 250.09 691.21 251.14 691.32 252.18C684.436 255.277 678.598 260.305 674.516 266.654C670.433 273.004 668.281 280.401 668.32 287.95C668.32 309.45 685.32 326.88 706.39 326.88C708.6 326.878 710.805 326.681 712.98 326.29C712.87 327.59 712.8 328.9 712.8 330.22C712.8 354.35 731.92 373.9 755.51 373.9C764.229 373.903 772.732 371.183 779.83 366.12C785.543 371.13 792.881 373.895 800.48 373.9C818.1 373.9 832.39 359.29 832.39 341.26C832.39 340.48 832.33 339.71 832.28 338.94H832.39C851.26 338.94 866.56 323.29 866.56 303.99C866.584 297.597 864.857 291.319 861.566 285.838C858.274 280.357 853.545 275.883 847.89 272.9V272.9Z" fill="#00897B"/>
<path d="M780.51 223.04H770.59V469.82H780.51V223.04Z" fill="url(#paint3_linear)"/>
<path d="M778.4 226.51H773.41V469.82H778.4V226.51Z" fill="#795548"/>
<path d="M813.897 253.935L772.94 298.164L776.601 301.554L817.558 257.325L813.897 253.935Z" fill="#795548"/>
<path d="M733.824 304.408L730.848 308.414L773.309 339.948L776.285 335.942L733.824 304.408Z" fill="#795548"/>
<path d="M662.01 345.28C656.668 339.592 653.693 332.083 653.69 324.28C653.722 318.901 655.146 313.622 657.824 308.957C660.501 304.292 664.342 300.4 668.97 297.66C666.894 294.645 665.781 291.071 665.78 287.41C665.78 277.13 674.41 268.79 685.05 268.79C689.161 268.748 693.176 270.028 696.505 272.441C699.834 274.853 702.3 278.271 703.54 282.19C706.169 278.057 709.804 274.659 714.105 272.315C718.406 269.971 723.232 268.758 728.13 268.79C743.99 268.79 756.85 281.21 756.85 296.53C756.852 299.804 756.256 303.051 755.09 306.11C755.67 306.11 756.25 306.02 756.85 306.02C769.58 306.02 779.85 316.02 779.85 328.29C779.849 329.042 779.809 329.793 779.73 330.54C784.806 332.587 789.161 336.094 792.242 340.617C795.324 345.141 796.994 350.477 797.04 355.95C797.04 371.22 784.23 383.6 768.42 383.6C766.744 383.601 765.072 383.461 763.42 383.18C763.51 384.1 763.56 385.03 763.56 385.97C763.56 403.11 749.18 416.97 731.44 416.97C724.967 417 718.63 415.11 713.23 411.54C708.846 415.113 703.356 417.05 697.7 417.02C684.45 417.02 673.7 406.64 673.7 393.84C673.7 393.28 673.7 392.74 673.79 392.2H673.7C659.51 392.2 648.01 381.09 648.01 367.38C648.045 362.756 649.375 358.234 651.85 354.328C654.324 350.422 657.844 347.287 662.01 345.28V345.28Z" fill="url(#paint4_linear)"/>
<path d="M664.6 345.18C659.478 339.747 656.617 332.567 656.6 325.1C656.63 319.951 657.994 314.898 660.558 310.433C663.122 305.967 666.799 302.242 671.23 299.62C669.244 296.735 668.18 293.314 668.18 289.81C668.18 279.97 676.44 271.99 686.62 271.99C690.556 271.949 694.401 273.174 697.588 275.484C700.775 277.794 703.135 281.067 704.32 284.82C706.835 280.864 710.313 277.612 714.429 275.368C718.544 273.123 723.162 271.961 727.85 271.99C743.03 271.99 755.34 283.88 755.34 298.55C755.344 301.684 754.774 304.792 753.66 307.72C754.22 307.72 754.77 307.64 755.34 307.64C767.52 307.64 777.4 317.18 777.4 328.95C777.4 329.668 777.364 330.386 777.29 331.1C782.149 333.059 786.316 336.416 789.266 340.745C792.216 345.075 793.815 350.182 793.86 355.42C793.86 370.04 781.59 381.89 766.46 381.89C764.872 381.889 763.286 381.756 761.72 381.49C761.8 382.37 761.85 383.26 761.85 384.16C761.85 400.56 748.09 413.86 731.11 413.86C724.881 413.875 718.788 412.034 713.61 408.57C709.421 412.005 704.167 413.875 698.75 413.86C686.07 413.86 675.75 403.93 675.75 391.67C675.75 391.14 675.75 390.62 675.83 390.1H675.75C662.17 390.1 651.16 379.46 651.16 366.34C651.196 361.909 652.475 357.577 654.85 353.836C657.226 350.095 660.604 347.096 664.6 345.18V345.18Z" fill="#009688"/>
<path d="M721.05 314.11H712.06V479.18H721.05V314.11Z" fill="url(#paint5_linear)"/>
<path d="M719.19 314.11H714.22V479.18H719.19V314.11Z" fill="#795548"/>
<path d="M689.506 331.739L685.957 335.218L715.428 365.282L718.977 361.802L689.506 331.739Z" fill="#795548"/>
<path d="M746.346 365.886L715.789 387.33L718.644 391.398L749.201 369.955L746.346 365.886Z" fill="#795548"/>
<path d="M746.58 350.18C749.605 346.731 751.852 342.671 753.17 338.276C754.488 333.882 754.846 329.255 754.219 324.711C753.592 320.166 751.995 315.809 749.537 311.935C747.078 308.062 743.816 304.762 739.97 302.26C741.942 299.181 742.984 295.597 742.97 291.94C743.077 287.476 741.546 283.127 738.667 279.714C735.787 276.301 731.758 274.061 727.34 273.415C722.921 272.769 718.419 273.762 714.683 276.208C710.947 278.654 708.236 282.382 707.06 286.69C704.677 282.603 701.269 279.209 697.172 276.843C693.075 274.477 688.431 273.221 683.7 273.2C668.62 273.2 656.39 285.7 656.39 301.13C656.386 304.416 656.951 307.677 658.06 310.77C657.51 310.77 656.95 310.68 656.39 310.68C653.479 310.713 650.602 311.319 647.925 312.463C645.248 313.608 642.822 315.268 640.786 317.35C638.751 319.432 637.145 321.894 636.062 324.597C634.978 327.299 634.437 330.189 634.47 333.1C634.47 333.86 634.47 334.62 634.58 335.36C629.652 337.57 625.473 341.164 622.551 345.706C619.629 350.247 618.089 355.54 618.12 360.94C618.12 376.31 630.31 388.78 645.34 388.78C646.919 388.779 648.496 388.639 650.05 388.36C649.97 389.29 649.92 390.22 649.92 391.17C649.92 408.42 663.6 422.41 680.46 422.41C686.694 422.413 692.774 420.469 697.85 416.85C701.937 420.432 707.186 422.408 712.62 422.41C715.651 422.376 718.646 421.746 721.433 420.554C724.22 419.363 726.745 417.634 728.864 415.467C730.983 413.299 732.655 410.736 733.783 407.923C734.911 405.109 735.474 402.101 735.44 399.07C735.44 398.51 735.44 397.96 735.36 397.41H735.44C748.94 397.41 759.88 386.22 759.88 372.41C759.9 367.845 758.671 363.361 756.327 359.443C753.983 355.525 750.612 352.322 746.58 350.18V350.18Z" fill="url(#paint6_linear)"/>
<path d="M743.05 350.04C745.886 346.798 747.992 342.985 749.227 338.859C750.461 334.733 750.796 330.39 750.207 326.123C749.618 321.857 748.12 317.767 745.814 314.129C743.508 310.492 740.448 307.392 736.84 305.04C738.704 302.156 739.694 298.794 739.69 295.36C739.791 291.169 738.355 287.086 735.652 283.882C732.949 280.677 729.166 278.573 725.018 277.967C720.87 277.36 716.644 278.293 713.136 280.589C709.629 282.885 707.083 286.385 705.98 290.43C703.741 286.59 700.538 283.402 696.688 281.182C692.838 278.961 688.475 277.785 684.03 277.77C669.87 277.77 658.4 289.51 658.4 303.99C658.397 307.074 658.928 310.136 659.97 313.04C659.45 313.04 658.97 312.96 658.4 312.96C652.89 313.023 647.629 315.269 643.773 319.206C639.917 323.143 637.779 328.449 637.83 333.96C637.83 334.68 637.83 335.39 637.93 336.08C633.306 338.153 629.385 341.525 626.642 345.786C623.899 350.046 622.453 355.012 622.48 360.08C622.48 374.51 633.92 386.21 648.03 386.21C649.512 386.207 650.991 386.073 652.45 385.81C652.37 386.68 652.33 387.56 652.33 388.45C652.33 404.64 665.17 417.77 681 417.77C686.854 417.774 692.564 415.949 697.33 412.55C701.163 415.915 706.089 417.77 711.19 417.77C716.934 417.704 722.417 415.36 726.433 411.253C730.45 407.147 732.671 401.613 732.61 395.87C732.61 395.35 732.61 394.87 732.53 394.32H732.61C735.657 394.286 738.667 393.652 741.469 392.454C744.271 391.257 746.809 389.52 748.939 387.341C751.069 385.163 752.75 382.586 753.884 379.758C755.018 376.93 755.584 373.906 755.55 370.86C755.559 366.58 754.399 362.38 752.196 358.711C749.994 355.042 746.831 352.044 743.05 350.04V350.04Z" fill="#00897B"/>
<path d="M697.83 316.57H691.17V482.21H697.83V316.57Z" fill="url(#paint7_linear)"/>
<path d="M696.41 318.9H693.06V482.21H696.41V318.9Z" fill="#795548"/>
<path d="M720.228 337.295L692.738 366.981L695.196 369.258L722.686 339.571L720.228 337.295Z" fill="#795548"/>
<path d="M666.482 371.185L664.484 373.874L692.984 395.04L694.982 392.351L666.482 371.185Z" fill="#795548"/>
<path d="M687.26 235.33H405.26V486.33H687.26V235.33Z" fill="url(#paint8_linear)"/>
<path d="M680.26 235.33H220.26V478.33H680.26V235.33Z" fill="white"/>
<path d="M702.27 259.33H250.27V141.33H685.77C690.146 141.33 694.343 143.068 697.437 146.163C700.532 149.257 702.27 153.454 702.27 157.83V259.33Z" fill="url(#paint9_linear)"/>
<path d="M250.26 146H681.88C686.256 146 690.453 147.738 693.547 150.833C696.642 153.927 698.38 158.124 698.38 162.5V256.29H250.26V146Z" fill="#6C63FF"/>
<path opacity="0.7" d="M250.26 146H681.88C686.256 146 690.453 147.738 693.547 150.833C696.642 153.927 698.38 158.124 698.38 162.5V256.29H250.26V146Z" fill="white"/>
<path d="M249.26 13.3203L93.26 123.18V215.75V486.32H405.26V215.75V123.18L249.26 13.3203Z" fill="url(#paint10_linear)"/>
<path d="M398.26 121.33L250.26 13.3203L102.26 121.33V212.32H398.26V121.33Z" fill="#6C63FF"/>
<path opacity="0.5" d="M398.26 121.33L250.26 13.3203L102.26 121.33V212.32H398.26V121.33Z" fill="white"/>
<path d="M398.26 212.33H102.26V478.33H398.26V212.33Z" fill="white"/>
<path d="M417.26 175.32L250.26 56.0701L81.26 175.32L70.26 133.38L250.26 2.37012L430.26 133.38L417.26 175.32Z" fill="url(#paint11_linear)"/>
<path d="M415.73 169.18L250.26 48.7502L84.8 169.18L77.73 131.47L250.26 5.91016L422.8 131.47L415.73 169.18Z" fill="#6C63FF"/>
<path opacity="0.2" d="M415.73 169.18L250.26 48.7502L84.8 169.18L77.73 131.47L250.26 5.91016L422.8 131.47L415.73 169.18Z" fill="#32CD32"/>
<path d="M334.26 270.33H166.26V478.33H334.26V270.33Z" fill="#F2F2F2"/>
<path d="M334.26 270.33H166.26V306.33H334.26V270.33Z" fill="#6C63FF"/>
<path d="M334.26 442.33H166.26V478.33H334.26V442.33Z" fill="#6C63FF"/>
<path d="M531.6 403.54C531.998 403.54 532.379 403.382 532.661 403.101C532.942 402.819 533.1 402.438 533.1 402.04C533.1 401.642 532.942 401.261 532.661 400.979C532.379 400.698 531.998 400.54 531.6 400.54C531.202 400.54 530.821 400.698 530.539 400.979C530.258 401.261 530.1 401.642 530.1 402.04C530.1 402.438 530.258 402.819 530.539 403.101C530.821 403.382 531.202 403.54 531.6 403.54V403.54Z" fill="#00FF00"/>
<path d="M572.26 326.33H490.26V478.33H572.26V326.33Z" fill="#F2F2F2"/>
<path d="M670.26 294.33H593.26V350.33H670.26V294.33Z" fill="#F2F2F2"/>
<path opacity="0.2" d="M670.26 294.33H593.26V319.33H670.26V294.33Z" fill="#6C63FF"/>
<path d="M60.7 375.09C56.2267 370.363 53.7234 364.108 53.7 357.6C53.7302 353.117 54.9191 348.717 57.1514 344.829C59.3837 340.941 62.5835 337.696 66.44 335.41C64.7095 332.898 63.782 329.92 63.78 326.87C63.8536 322.683 65.5865 318.696 68.5979 315.786C71.6093 312.876 75.6528 311.28 79.84 311.35C83.2737 311.311 86.6286 312.378 89.4091 314.393C92.1895 316.409 94.2479 319.265 95.28 322.54C97.4715 319.094 100.502 316.262 104.088 314.308C107.674 312.354 111.697 311.343 115.78 311.37C129 311.37 139.72 321.73 139.72 334.5C139.723 337.234 139.224 339.945 138.25 342.5C138.74 342.5 139.25 342.43 139.72 342.43C150.33 342.43 158.93 350.74 158.93 360.99C158.929 361.614 158.895 362.239 158.83 362.86C163.061 364.566 166.691 367.489 169.26 371.26C171.829 375.03 173.221 379.478 173.26 384.04C173.26 396.77 162.58 407.09 149.4 407.09C148.016 407.089 146.634 406.972 145.27 406.74C145.34 407.51 145.38 408.28 145.38 409.07C145.38 423.36 133.38 434.94 118.61 434.94C113.181 434.954 107.872 433.349 103.36 430.33C99.7095 433.323 95.131 434.953 90.41 434.94C79.41 434.94 70.41 426.29 70.41 415.61C70.41 415.15 70.41 414.69 70.48 414.24H70.41C58.58 414.24 48.99 404.97 48.99 393.55C49.0154 389.685 50.1268 385.904 52.1973 382.64C54.2678 379.376 57.2141 376.76 60.7 375.09V375.09Z" fill="url(#paint12_linear)"/>
<path d="M62.8299 375.01C58.5708 370.475 56.1968 364.49 56.1899 358.27C56.2147 353.978 57.3505 349.766 59.4868 346.044C61.6231 342.321 64.6869 339.216 68.3799 337.03C66.7243 334.623 65.8386 331.771 65.8399 328.85C65.8738 326.864 66.2985 324.904 67.0898 323.083C67.8811 321.261 69.0235 319.614 70.4517 318.234C71.8799 316.854 73.566 315.769 75.4136 315.04C77.2613 314.312 79.2343 313.955 81.2199 313.99C84.4992 313.957 87.7024 314.978 90.3578 316.902C93.0132 318.827 94.9805 321.553 95.9699 324.68C98.0671 321.382 100.968 318.671 104.399 316.801C107.831 314.931 111.682 313.964 115.59 313.99C128.24 313.99 138.5 323.9 138.5 336.13C138.503 338.74 138.028 341.329 137.1 343.77C137.56 343.77 138.03 343.7 138.5 343.7C148.66 343.7 156.89 351.7 156.89 361.47C156.891 362.067 156.861 362.665 156.8 363.26C160.848 364.896 164.32 367.696 166.777 371.306C169.233 374.916 170.564 379.173 170.6 383.54C170.6 395.73 160.38 405.61 147.76 405.61C146.419 405.609 145.081 405.496 143.76 405.27C143.83 406 143.87 406.75 143.87 407.5C143.87 421.17 132.4 432.26 118.24 432.26C113.062 432.26 108.001 430.721 103.7 427.84C100.207 430.704 95.8267 432.263 91.3099 432.25C80.7399 432.25 72.1699 423.97 72.1699 413.75C72.1699 413.31 72.1699 412.87 72.2399 412.44H72.1699C60.8499 412.44 51.6699 403.57 51.6699 392.63C51.6995 388.944 52.7605 385.339 54.7328 382.225C56.7052 379.111 59.5101 376.612 62.8299 375.01V375.01Z" fill="#009688"/>
<path d="M109.89 349.11H102.39V486.72H109.89V349.11Z" fill="url(#paint13_linear)"/>
<path d="M108.33 349.11H104.19V486.72H108.33V349.11Z" fill="#795548"/>
<path d="M83.5863 363.802L80.6299 366.7L105.201 391.765L108.158 388.867L83.5863 363.802Z" fill="#795548"/>
<path d="M130.972 392.275L105.499 410.151L107.877 413.54L133.35 395.664L130.972 392.275Z" fill="#795548"/>
<path d="M11.7 375.09C7.22666 370.363 4.7234 364.108 4.7 357.6C4.73015 353.117 5.91911 348.717 8.1514 344.829C10.3837 340.941 13.5835 337.696 17.44 335.41C15.7095 332.898 14.782 329.92 14.78 326.87C14.8536 322.683 16.5865 318.696 19.5979 315.786C22.6093 312.876 26.6528 311.28 30.84 311.35C34.2737 311.311 37.6286 312.378 40.4091 314.393C43.1895 316.409 45.2479 319.265 46.28 322.54C48.4715 319.094 51.5022 316.262 55.0879 314.308C58.6735 312.354 62.6967 311.343 66.78 311.37C80 311.37 90.72 321.73 90.72 334.5C90.7226 337.234 90.2243 339.945 89.25 342.5C89.74 342.5 90.25 342.43 90.72 342.43C101.33 342.43 109.93 350.74 109.93 360.99C109.929 361.614 109.895 362.239 109.83 362.86C114.061 364.566 117.691 367.489 120.26 371.26C122.829 375.03 124.221 379.478 124.26 384.04C124.26 396.77 113.58 407.09 100.4 407.09C99.016 407.089 97.6345 406.972 96.27 406.74C96.34 407.51 96.38 408.28 96.38 409.07C96.38 423.36 84.38 434.94 69.61 434.94C64.1813 434.954 58.8717 433.349 54.36 430.33C50.7095 433.323 46.131 434.953 41.41 434.94C30.41 434.94 21.41 426.29 21.41 415.61C21.41 415.15 21.41 414.69 21.48 414.24H21.41C9.58 414.24 -0.0100098 404.97 -0.0100098 393.55C0.0154492 389.685 1.12683 385.904 3.19734 382.64C5.26785 379.376 8.21411 376.76 11.7 375.09V375.09Z" fill="url(#paint14_linear)"/>
<path d="M13.8299 375.01C9.57082 370.475 7.19683 364.49 7.18993 358.27C7.21472 353.978 8.35055 349.766 10.4868 346.044C12.6231 342.321 15.6869 339.216 19.3799 337.03C17.7243 334.623 16.8386 331.771 16.8399 328.85C16.8738 326.864 17.2985 324.904 18.0898 323.083C18.8811 321.261 20.0235 319.614 21.4517 318.234C22.8799 316.854 24.566 315.769 26.4136 315.04C28.2613 314.312 30.2343 313.955 32.2199 313.99C35.4992 313.957 38.7024 314.978 41.3578 316.902C44.0132 318.827 45.9805 321.553 46.9699 324.68C49.0671 321.382 51.9676 318.671 55.3994 316.801C58.8313 314.931 62.6818 313.964 66.5899 313.99C79.2399 313.99 89.4999 323.9 89.4999 336.13C89.5025 338.74 89.0281 341.329 88.0999 343.77C88.5599 343.77 89.0299 343.7 89.4999 343.7C99.6599 343.7 107.89 351.7 107.89 361.47C107.891 362.067 107.861 362.665 107.8 363.26C111.848 364.896 115.32 367.696 117.777 371.306C120.233 374.916 121.564 379.173 121.6 383.54C121.6 395.73 111.38 405.61 98.7599 405.61C97.4194 405.609 96.0813 405.496 94.7599 405.27C94.8299 406 94.8699 406.75 94.8699 407.5C94.8699 421.17 83.3999 432.26 69.2399 432.26C64.0623 432.26 59.0014 430.721 54.6999 427.84C51.2073 430.704 46.8267 432.263 42.3099 432.25C31.7399 432.25 23.1699 423.97 23.1699 413.75C23.1699 413.31 23.1699 412.87 23.2399 412.44H23.1699C11.8499 412.44 2.66992 403.57 2.66992 392.63C2.69945 388.944 3.76048 385.339 5.73285 382.225C7.70522 379.111 10.5101 376.612 13.8299 375.01V375.01Z" fill="#009688"/>
<path d="M60.8899 349.11H53.3899V486.72H60.8899V349.11Z" fill="url(#paint15_linear)"/>
<path d="M59.3299 349.11H55.1899V486.72H59.3299V349.11Z" fill="#795548"/>
<path d="M34.5951 363.804L31.6387 366.702L56.21 391.767L59.1664 388.869L34.5951 363.804Z" fill="#795548"/>
<path d="M81.9731 392.283L56.4998 410.159L58.8779 413.548L84.3512 395.672L81.9731 392.283Z" fill="#795548"/>
<path d="M123.17 376.18C125.695 373.301 127.572 369.913 128.673 366.245C129.774 362.577 130.073 358.716 129.551 354.922C129.028 351.128 127.696 347.491 125.644 344.257C123.593 341.024 120.87 338.269 117.66 336.18C119.316 333.618 120.195 330.631 120.19 327.58C120.282 323.857 119.007 320.229 116.607 317.381C114.206 314.534 110.846 312.664 107.161 312.125C103.476 311.586 99.7205 312.415 96.6048 314.455C93.4891 316.496 91.2286 319.607 90.2501 323.2C88.2626 319.79 85.4188 316.958 82.0003 314.985C78.5818 313.012 74.7072 311.965 70.7601 311.95C67.7354 311.98 64.7463 312.607 61.964 313.793C59.1817 314.98 56.6609 316.704 54.5458 318.867C52.4307 321.029 50.763 323.588 49.6381 326.396C48.5131 329.203 47.9531 332.206 47.9901 335.23C47.9899 337.957 48.4602 340.663 49.3801 343.23C48.9201 343.23 48.4601 343.16 47.9901 343.16C45.5538 343.185 43.1465 343.691 40.9066 344.65C38.6668 345.608 36.6386 347 34.9387 348.746C33.2389 350.491 31.9009 352.555 31.0019 354.82C30.1028 357.084 29.6604 359.504 29.7001 361.94C29.7001 362.58 29.7001 363.21 29.7901 363.83C25.6836 365.673 22.2008 368.669 19.7651 372.453C17.3294 376.238 16.0457 380.649 16.0701 385.15C16.014 391.233 18.37 397.091 22.6225 401.44C26.8749 405.79 32.6774 408.278 38.7601 408.36C40.0778 408.36 41.393 408.243 42.6901 408.01C42.6201 408.78 42.5801 409.56 42.5801 410.35C42.5801 424.73 53.9801 436.35 68.0401 436.35C73.2383 436.349 78.3067 434.727 82.5401 431.71C85.9455 434.698 90.32 436.347 94.8501 436.35C99.9477 436.287 104.812 434.203 108.374 430.556C111.937 426.909 113.906 421.998 113.85 416.9C113.85 416.43 113.85 415.98 113.78 415.52H113.85C119.313 415.457 124.527 413.227 128.347 409.321C132.166 405.416 134.279 400.153 134.22 394.69C134.236 390.892 133.216 387.161 131.269 383.899C129.321 380.637 126.521 377.969 123.17 376.18V376.18Z" fill="url(#paint16_linear)"/>
<path d="M120.23 376.06C122.592 373.358 124.347 370.18 125.375 366.742C126.403 363.303 126.681 359.684 126.19 356.129C125.699 352.574 124.45 349.165 122.528 346.134C120.606 343.103 118.056 340.52 115.05 338.56C116.602 336.155 117.425 333.352 117.42 330.49C117.513 326.992 116.32 323.581 114.067 320.903C111.814 318.225 108.657 316.467 105.195 315.96C101.732 315.454 98.2038 316.235 95.2782 318.155C92.3526 320.075 90.2328 323.002 89.32 326.38C87.454 323.178 84.7838 320.519 81.5739 318.667C78.3641 316.815 74.726 315.833 71.02 315.82C65.2964 315.899 59.8377 318.245 55.8411 322.343C51.8444 326.441 49.6359 331.956 49.7 337.68C49.6979 340.25 50.1412 342.801 51.01 345.22C50.58 345.22 50.14 345.15 49.7 345.15C45.1002 345.203 40.7096 347.08 37.4935 350.369C34.2775 353.658 32.4994 358.09 32.55 362.69C32.55 363.29 32.55 363.88 32.64 364.46C28.7867 366.188 25.5181 368.998 23.2316 372.548C20.9451 376.099 19.739 380.237 19.76 384.46C19.6987 390.172 21.9078 395.675 25.9018 399.759C29.8959 403.843 35.348 406.174 41.06 406.24C42.2974 406.239 43.5322 406.129 44.75 405.91C44.69 406.64 44.65 407.37 44.65 408.11C44.65 421.61 55.35 432.55 68.55 432.55C73.4291 432.553 78.1872 431.032 82.16 428.2C85.3548 430.995 89.4549 432.537 93.7 432.54C96.0718 432.514 98.4151 432.021 100.596 431.089C102.777 430.157 104.754 428.805 106.412 427.109C108.071 425.414 109.379 423.408 110.262 421.207C111.145 419.005 111.586 416.652 111.56 414.28C111.56 413.84 111.56 413.41 111.5 412.98H111.56C114.1 412.951 116.609 412.422 118.945 411.424C121.28 410.425 123.396 408.977 125.171 407.16C126.947 405.344 128.347 403.196 129.292 400.838C130.238 398.48 130.709 395.96 130.68 393.42C130.685 389.849 129.714 386.344 127.872 383.285C126.031 380.225 123.388 377.727 120.23 376.06V376.06Z" fill="#00897B"/>
<path d="M82.52 348.16H76.97V486.25H82.52V348.16Z" fill="url(#paint17_linear)"/>
<path d="M81.34 350.1H78.55V486.25H81.34V350.1Z" fill="#795548"/>
<path d="M101.227 365.441L78.3098 390.189L80.3569 392.085L103.274 367.336L101.227 365.441Z" fill="#795548"/>
<path d="M56.3922 393.686L54.7288 395.926L78.4922 413.574L80.1556 411.334L56.3922 393.686Z" fill="#795548"/>
<path d="M713.33 52.7803C699.188 38.0676 682.245 26.3328 663.5 18.2666C644.754 10.2003 624.584 5.96571 604.178 5.81196C583.771 5.65821 563.54 9.58844 544.675 17.3713C525.81 25.1542 508.692 36.6324 494.33 51.1303C436.42 109.51 435.44 204.56 492.08 264.13C516.959 290.334 550.31 306.886 586.224 310.856C622.138 314.826 658.298 305.957 688.3 285.82L798.9 400.82C799.577 401.526 800.387 402.092 801.283 402.485C802.179 402.877 803.143 403.09 804.121 403.109C805.1 403.129 806.072 402.955 806.983 402.598C807.894 402.242 808.725 401.709 809.43 401.03L836.98 374.54C837.686 373.863 838.252 373.053 838.644 372.157C839.037 371.262 839.249 370.297 839.269 369.319C839.288 368.341 839.115 367.368 838.758 366.458C838.401 365.547 837.869 364.715 837.19 364.01L726.59 249.01C747.797 219.96 758.092 184.368 755.667 148.482C753.242 112.597 738.253 78.713 713.33 52.7803V52.7803ZM678.88 237.7C663.282 252.705 643.585 262.747 622.28 266.556C600.975 270.366 579.018 267.773 559.187 259.104C539.356 250.436 522.54 236.081 510.867 217.856C499.194 199.631 493.188 178.353 493.607 156.714C494.027 135.075 500.854 114.046 513.224 96.2871C525.595 78.528 542.954 64.836 563.107 56.9426C583.259 49.0492 605.3 47.3089 626.441 51.9418C647.583 56.5747 666.875 67.3727 681.88 82.9703C691.843 93.3269 699.668 105.544 704.909 118.925C710.151 132.306 712.705 146.589 712.426 160.957C712.148 175.325 709.042 189.497 703.286 202.665C697.53 215.833 689.237 227.738 678.88 237.7V237.7Z" fill="url(#paint18_linear)"/>
<path d="M521.99 128.39C509.68 128.39 509.66 147.51 521.99 147.51C534.32 147.51 534.31 128.39 521.99 128.39Z" fill="url(#paint19_linear)"/>
<path d="M607.77 67.1298C574.65 66.3798 544.5 82.9998 528.48 108.13C523.25 116.31 538.1 123.54 543.3 115.4C556.57 94.6298 581.79 81.3998 609.04 82.1298C637.62 82.8498 663.63 99.1999 677.4 121.89C682.63 130.5 696.31 122.67 691.12 114.11C674.41 86.5399 641.99 67.8998 607.77 67.1298Z" fill="url(#paint20_linear)"/>
<path d="M725.33 46.96C711.188 32.2473 694.245 20.5125 675.5 12.4463C656.754 4.38002 636.584 0.145397 616.178 -0.00835259C595.771 -0.162102 575.54 3.76812 556.675 11.551C537.81 19.3339 520.692 30.8121 506.33 45.31C448.42 103.69 447.44 198.74 504.08 258.31C528.959 284.513 562.31 301.066 598.224 305.036C634.138 309.006 670.298 300.137 700.3 280L810.9 395C811.577 395.706 812.387 396.272 813.283 396.664C814.179 397.057 815.143 397.269 816.121 397.289C817.1 397.308 818.072 397.135 818.983 396.778C819.894 396.421 820.725 395.888 821.43 395.21L848.99 368.71C849.696 368.033 850.262 367.223 850.654 366.327C851.047 365.431 851.259 364.467 851.279 363.489C851.298 362.51 851.125 361.538 850.768 360.627C850.411 359.716 849.879 358.885 849.2 358.18L738.6 243.18C759.803 214.13 770.095 178.539 767.668 142.655C765.242 106.772 750.252 72.8909 725.33 46.96V46.96ZM690.88 231.88C675.282 246.884 655.585 256.926 634.28 260.736C612.975 264.546 591.018 261.953 571.187 253.284C551.356 244.615 534.54 230.261 522.867 212.036C511.194 193.81 505.188 172.533 505.607 150.894C506.027 129.255 512.854 108.226 525.224 90.4668C537.595 72.7077 554.954 59.0157 575.107 51.1223C595.259 43.2289 617.3 41.4886 638.441 46.1215C659.583 50.7544 678.875 61.5523 693.88 77.15C703.843 87.5066 711.668 99.7242 716.909 113.105C722.151 126.486 724.705 140.768 724.426 155.136C724.148 169.504 721.042 183.677 715.286 196.845C709.53 210.012 701.237 221.917 690.88 231.88V231.88Z" fill="#32CD32"/>
<path d="M533.99 122.54C521.68 122.54 521.66 141.66 533.99 141.66C546.32 141.66 546.31 122.54 533.99 122.54Z" fill="#32CD32"/>
<path d="M619.77 61.3095C586.65 60.5595 556.5 77.1795 540.48 102.31C535.25 110.49 550.1 117.72 555.3 109.58C568.57 88.8096 593.79 75.5795 621.04 76.3095C649.62 77.0295 675.63 93.3795 689.4 116.07C694.63 124.68 708.31 116.85 703.12 108.29C686.41 80.7395 653.99 62.0895 619.77 61.3095Z" fill="#32CD32"/>
</g>
<defs>
<linearGradient id="paint0_linear" x1="854.9" y1="374.15" x2="854.9" y2="156.65" gradientUnits="userSpaceOnUse">
<stop stop-color="#808080" stop-opacity="0.25"/>
<stop offset="0.54" stop-color="#808080" stop-opacity="0.12"/>
<stop offset="1" stop-color="#808080" stop-opacity="0.1"/>
</linearGradient>
<linearGradient id="paint1_linear" x1="11999.7" y1="112950" x2="11999.7" y2="54271.9" gradientUnits="userSpaceOnUse">
<stop stop-color="#808080" stop-opacity="0.25"/>
<stop offset="0.54" stop-color="#808080" stop-opacity="0.12"/>
<stop offset="1" stop-color="#808080" stop-opacity="0.1"/>
</linearGradient>
<linearGradient id="paint2_linear" x1="193614" y1="140243" x2="193614" y2="90828.3" gradientUnits="userSpaceOnUse">
<stop stop-color="#808080" stop-opacity="0.25"/>
<stop offset="0.54" stop-color="#808080" stop-opacity="0.12"/>
<stop offset="1" stop-color="#808080" stop-opacity="0.1"/>
</linearGradient>
<linearGradient id="paint3_linear" x1="8464.03" y1="116165" x2="8464.03" y2="55264.9" gradientUnits="userSpaceOnUse">
<stop stop-color="#808080" stop-opacity="0.25"/>
<stop offset="0.54" stop-color="#808080" stop-opacity="0.12"/>
<stop offset="1" stop-color="#808080" stop-opacity="0.1"/>
</linearGradient>
<linearGradient id="paint4_linear" x1="130133" y1="99062" x2="130133" y2="77092.6" gradientUnits="userSpaceOnUse">
<stop stop-color="#808080" stop-opacity="0.25"/>
<stop offset="0.54" stop-color="#808080" stop-opacity="0.12"/>
<stop offset="1" stop-color="#808080" stop-opacity="0.1"/>
</linearGradient>
<linearGradient id="paint5_linear" x1="7153.93" y1="79412.4" x2="7153.93" y2="52164.3" gradientUnits="userSpaceOnUse">
<stop stop-color="#808080" stop-opacity="0.25"/>
<stop offset="0.54" stop-color="#808080" stop-opacity="0.12"/>
<stop offset="1" stop-color="#808080" stop-opacity="0.1"/>
</linearGradient>
<linearGradient id="paint6_linear" x1="119032" y1="100523" x2="119032" y2="78259.3" gradientUnits="userSpaceOnUse">
<stop stop-color="#808080" stop-opacity="0.25"/>
<stop offset="0.54" stop-color="#808080" stop-opacity="0.12"/>
<stop offset="1" stop-color="#808080" stop-opacity="0.1"/>
</linearGradient>
<linearGradient id="paint7_linear" x1="5316.56" y1="80189.8" x2="5316.56" y2="52753.2" gradientUnits="userSpaceOnUse">
<stop stop-color="#808080" stop-opacity="0.25"/>
<stop offset="0.54" stop-color="#808080" stop-opacity="0.12"/>
<stop offset="1" stop-color="#808080" stop-opacity="0.1"/>
</linearGradient>
<linearGradient id="paint8_linear" x1="154451" y1="122304" x2="154451" y2="59303.2" gradientUnits="userSpaceOnUse">
<stop stop-color="#808080" stop-opacity="0.25"/>
<stop offset="0.54" stop-color="#808080" stop-opacity="0.12"/>
<stop offset="1" stop-color="#808080" stop-opacity="0.1"/>
</linearGradient>
<linearGradient id="paint9_linear" x1="281652" y1="60178.5" x2="281652" y2="46254.5" gradientUnits="userSpaceOnUse">
<stop stop-color="#808080" stop-opacity="0.25"/>
<stop offset="0.54" stop-color="#808080" stop-opacity="0.12"/>
<stop offset="1" stop-color="#808080" stop-opacity="0.1"/>
</linearGradient>
<linearGradient id="paint10_linear" x1="77862.4" y1="230047" x2="77862.4" y2="6318.4" gradientUnits="userSpaceOnUse">
<stop stop-color="#808080" stop-opacity="0.25"/>
<stop offset="0.54" stop-color="#808080" stop-opacity="0.12"/>
<stop offset="1" stop-color="#808080" stop-opacity="0.1"/>
</linearGradient>
<linearGradient id="paint11_linear" x1="90163.9" y1="30325.7" x2="90163.9" y2="412.263" gradientUnits="userSpaceOnUse">
<stop stop-color="#808080" stop-opacity="0.25"/>
<stop offset="0.54" stop-color="#808080" stop-opacity="0.12"/>
<stop offset="1" stop-color="#808080" stop-opacity="0.1"/>
</linearGradient>
<linearGradient id="paint12_linear" x1="32039.8" y1="84893" x2="32039.8" y2="69621.9" gradientUnits="userSpaceOnUse">
<stop stop-color="#808080" stop-opacity="0.25"/>
<stop offset="0.54" stop-color="#808080" stop-opacity="0.12"/>
<stop offset="1" stop-color="#808080" stop-opacity="0.1"/>
</linearGradient>
<linearGradient id="paint13_linear" x1="898.44" y1="67326.7" x2="898.44" y2="48390.1" gradientUnits="userSpaceOnUse">
<stop stop-color="#808080" stop-opacity="0.25"/>
<stop offset="0.54" stop-color="#808080" stop-opacity="0.12"/>
<stop offset="1" stop-color="#808080" stop-opacity="0.1"/>
</linearGradient>
<linearGradient id="paint14_linear" x1="25901.6" y1="84893" x2="25901.6" y2="69621.9" gradientUnits="userSpaceOnUse">
<stop stop-color="#808080" stop-opacity="0.25"/>
<stop offset="0.54" stop-color="#808080" stop-opacity="0.12"/>
<stop offset="1" stop-color="#808080" stop-opacity="0.1"/>
</linearGradient>
<linearGradient id="paint15_linear" x1="481.94" y1="67326.7" x2="481.94" y2="48390.1" gradientUnits="userSpaceOnUse">
<stop stop-color="#808080" stop-opacity="0.25"/>
<stop offset="0.54" stop-color="#808080" stop-opacity="0.12"/>
<stop offset="1" stop-color="#808080" stop-opacity="0.1"/>
</linearGradient>
<linearGradient id="paint16_linear" x1="26184.4" y1="85631.7" x2="26184.4" y2="70157.6" gradientUnits="userSpaceOnUse">
<stop stop-color="#808080" stop-opacity="0.25"/>
<stop offset="0.54" stop-color="#808080" stop-opacity="0.12"/>
<stop offset="1" stop-color="#808080" stop-opacity="0.1"/>
</linearGradient>
<linearGradient id="paint17_linear" x1="519.582" y1="67494.4" x2="519.582" y2="48425.6" gradientUnits="userSpaceOnUse">
<stop stop-color="#808080" stop-opacity="0.25"/>
<stop offset="0.54" stop-color="#808080" stop-opacity="0.12"/>
<stop offset="1" stop-color="#808080" stop-opacity="0.1"/>
</linearGradient>
<linearGradient id="paint18_linear" x1="644.77" y1="403.14" x2="644.77" y2="5.82026" gradientUnits="userSpaceOnUse">
<stop stop-color="#B3B3B3" stop-opacity="0.25"/>
<stop offset="0.54" stop-color="#B3B3B3" stop-opacity="0.1"/>
<stop offset="1" stop-color="#B3B3B3" stop-opacity="0.05"/>
</linearGradient>
<linearGradient id="paint19_linear" x1="521.99" y1="147.52" x2="521.99" y2="128.39" gradientUnits="userSpaceOnUse">
<stop stop-opacity="0.12"/>
<stop offset="0.55" stop-opacity="0.09"/>
<stop offset="1" stop-opacity="0.02"/>
</linearGradient>
<linearGradient id="paint20_linear" x1="125207" y1="22014.6" x2="125207" y2="18592.3" gradientUnits="userSpaceOnUse">
<stop stop-opacity="0.12"/>
<stop offset="0.55" stop-opacity="0.09"/>
<stop offset="1" stop-opacity="0.02"/>
</linearGradient>
<clipPath id="clip0">
<rect width="964.26" height="486.72" fill="white"/>
</clipPath>
</defs>
</svg>
