<svg width="868" height="589" viewBox="0 0 868 589" fill="none" xmlns="http://www.w3.org/2000/svg">
<path d="M759.024 169.73H642.991C627.286 127.217 620.465 87.6886 642.991 58.0167C642.991 50.3979 644.491 42.8536 647.407 35.8147C650.323 28.7758 654.596 22.3801 659.983 16.9927C665.371 11.6054 671.767 7.33189 678.806 4.41628C685.844 1.50066 693.389 1.59488e-05 701.008 1.59488e-05H701.008C710.267 -0.00685329 719.393 2.20534 727.621 6.45126C735.85 10.6972 742.941 16.8532 748.301 24.4036C757.469 37.2806 759.307 53.8801 754.049 68.7878C744.679 95.3572 750.4 131.612 759.024 169.73Z" fill="#2F2E41"/>
<path d="M820.306 588.5C816.948 588.5 813.678 587.424 810.977 585.429C808.276 583.434 806.286 580.625 805.298 577.416L800.518 561.88C799.412 558.285 799.199 554.474 799.898 550.778L803.154 533.569H825.99L835.466 568.71C836.094 571.037 836.177 573.478 835.71 575.843C835.243 578.208 834.237 580.433 832.771 582.347C831.305 584.261 829.418 585.811 827.256 586.878C825.095 587.945 822.717 588.5 820.306 588.5V588.5Z" fill="#2F2E41"/>
<path d="M653.921 588.5C657.279 588.5 660.549 587.424 663.25 585.429C665.951 583.434 667.941 580.625 668.929 577.416L673.709 561.88C674.815 558.285 675.028 554.474 674.329 550.778L671.073 533.569H648.237L638.761 568.71C638.133 571.037 638.05 573.478 638.517 575.843C638.985 578.208 639.99 580.433 641.456 582.347C642.922 584.261 644.809 585.811 646.971 586.878C649.132 587.945 651.511 588.5 653.921 588.5V588.5Z" fill="#2F2E41"/>
<path d="M827.842 535.421H802.537L692.675 326.807L672.407 535.421H650.088C638.638 404.053 610.78 278.921 650.088 231.758L742.051 240.399L827.842 535.421Z" fill="#2F2E41"/>
<path d="M697.922 90.7283C714.965 90.7283 728.782 76.9118 728.782 59.8683C728.782 42.8248 714.965 29.0083 697.922 29.0083C680.878 29.0083 667.062 42.8248 667.062 59.8683C667.062 76.9118 680.878 90.7283 697.922 90.7283Z" fill="#9F616A"/>
<path d="M741.434 178.679H672.925L661.198 124.366C683.949 117.644 689.373 102.012 684.652 81.1617L721.684 78.6929C723.783 95.4883 727.623 111.149 751.309 113.873L741.434 178.679Z" fill="#9F616A"/>
<path d="M741.434 246.571C702.565 261.329 670.944 260.869 648.854 240.399C658.823 207.526 659.419 167.045 655.026 122.514L667.37 116.959L671.69 156.46L732.793 153.374L746.372 110.17L759.95 113.256C760.991 166.823 757.783 215.012 741.434 246.571Z" fill="#E6E6E6"/>
<path d="M777.232 313.229L784.489 336.814C785.076 338.725 785.208 340.747 784.872 342.718C784.536 344.689 783.742 346.553 782.555 348.161C781.367 349.769 779.818 351.076 778.033 351.977C776.249 352.878 774.277 353.347 772.278 353.347V353.347C770.488 353.347 768.719 352.971 767.084 352.243C765.449 351.515 763.985 350.452 762.787 349.123C761.589 347.793 760.684 346.227 760.13 344.525C759.576 342.823 759.386 341.024 759.572 339.244L762.419 311.994L750.692 219.414L759.333 178.679H780.935L777.232 313.229Z" fill="#9F616A"/>
<path d="M604.369 308.323L591.616 329.449C590.583 331.16 589.965 333.09 589.814 335.084C589.663 337.077 589.981 339.079 590.744 340.926C591.507 342.774 592.693 344.417 594.206 345.723C595.72 347.03 597.519 347.962 599.459 348.446C601.195 348.88 603.003 348.944 604.766 348.634C606.528 348.324 608.206 347.647 609.691 346.647C611.175 345.647 612.432 344.346 613.382 342.829C614.331 341.312 614.952 339.613 615.202 337.841L619.04 310.713L652.839 223.729L659.655 182.074L633.362 176.882L604.369 308.323Z" fill="#9F616A"/>
<path d="M796.365 183.617L755.63 182.999V112.021L761.902 112.936C768.559 113.907 774.696 117.088 779.326 121.968C783.956 126.848 786.811 133.144 787.431 139.842L796.365 183.617Z" fill="#E6E6E6"/>
<path d="M622.314 191.023L663.05 190.406V119.428L656.778 120.343C650.121 121.314 643.984 124.495 639.354 129.375C634.723 134.255 631.868 140.55 631.248 147.249L622.314 191.023Z" fill="#E6E6E6"/>
<path d="M726.313 45.0557C713.204 52.4728 688.011 55.8656 669.53 50.6105L663.358 18.5161H724.461L726.313 45.0557Z" fill="#2F2E41"/>
<path d="M241 426H40V588H241V426Z" fill="#E6E6E6"/>
<path d="M157.5 541H123.5V587H157.5V541Z" fill="#32CD32"/>
<path d="M488.026 430.784L493.376 416.518L543.307 387.986L577.189 380.853L488.026 430.784Z" fill="#32CD32"/>
<path d="M304.352 430.784L299.002 416.518L249.071 387.986L215.189 380.853L304.352 430.784Z" fill="#32CD32"/>
<path d="M491.593 434.35H300.785L284.736 359.454H507.642L491.593 434.35Z" fill="#32CD32"/>
<path opacity="0.1" d="M491.593 434.35H300.785L284.736 359.454H507.642L491.593 434.35Z" fill="black"/>
<path d="M492.485 429.892H299.894V588H492.485V429.892Z" fill="#32CD32"/>
<path d="M413.189 540.977H379.189V586.977H413.189V540.977Z" fill="#3F3D56"/>
<path d="M867.543 588.19H0V586.008H867.939L867.543 588.19Z" fill="#3F3D56"/>
<path d="M436.189 462.25H356.189V487.25H436.189V462.25Z" fill="white"/>
<path d="M179.969 462.25H99.9692V487.25H179.969V462.25Z" fill="white"/>
</svg>
