<svg width="965" height="838" viewBox="0 0 965 838" fill="none" xmlns="http://www.w3.org/2000/svg">
<g clip-path="url(#clip0)">
<path d="M671.749 610.549C665.133 603.158 661.445 593.398 661.436 583.253C661.475 576.255 663.237 569.386 666.553 563.316C669.869 557.247 674.624 552.182 680.357 548.617C677.792 544.705 676.415 540.069 676.407 535.319C676.407 521.942 687.091 511.099 700.273 511.099C705.364 511.045 710.337 512.71 714.459 515.85C718.581 518.989 721.634 523.437 723.168 528.537C726.421 523.159 730.922 518.738 736.248 515.688C741.574 512.638 747.55 511.059 753.616 511.099C773.253 511.099 789.178 527.261 789.178 547.189C789.18 551.446 788.443 555.667 787 559.645C787.718 559.592 788.443 559.53 789.178 559.53C804.942 559.53 817.718 572.499 817.718 588.501C817.719 589.478 817.671 590.455 817.575 591.426C830.183 596.941 839.01 609.662 839.01 624.476C839.01 644.342 823.145 660.45 803.566 660.45C801.51 660.447 799.458 660.264 797.431 659.901C797.532 661.098 797.6 662.312 797.6 663.535C797.6 685.831 779.793 703.907 757.827 703.907C749.764 703.932 741.877 701.429 735.176 696.718C729.755 701.387 722.955 703.929 715.944 703.907C699.53 703.907 686.23 690.406 686.23 673.766C686.23 673.048 686.289 672.339 686.34 671.629H686.23C668.66 671.629 654.415 657.17 654.415 639.334C654.452 633.313 656.095 627.423 659.16 622.334C662.224 617.246 666.585 613.163 671.749 610.549V610.549Z" fill="url(#paint0_linear)"/>
<path d="M674.634 610.428C668.293 603.337 664.758 593.976 664.749 584.246C664.785 577.532 666.475 570.943 669.655 565.12C672.835 559.297 677.397 554.439 682.895 551.018C680.43 547.258 679.109 542.8 679.107 538.234C679.107 525.405 689.355 515.001 701.996 515.001C706.881 514.95 711.652 516.547 715.609 519.556C719.566 522.566 722.5 526.83 723.98 531.722C727.098 526.574 731.407 522.342 736.504 519.419C741.601 516.497 747.32 514.98 753.126 515.01C771.965 515.01 787.228 530.513 787.228 549.659C787.23 553.743 786.522 557.792 785.139 561.608C785.833 561.555 786.526 561.502 787.228 561.502C802.346 561.502 814.598 573.94 814.598 589.292C814.597 590.23 814.549 591.167 814.455 592.1C826.546 597.43 835.01 609.593 835.01 623.799C835.01 642.856 819.79 658.306 801.019 658.306C799.035 658.306 797.055 658.131 795.1 657.782C795.201 658.928 795.26 660.092 795.26 661.264C795.26 682.649 778.18 699.982 757.117 699.982C749.385 700.004 741.823 697.604 735.395 693.088C730.216 697.556 723.723 699.999 717.021 700C701.285 700 688.526 687.047 688.526 671.073C688.526 670.38 688.577 669.704 688.628 669.02H688.526C671.674 669.02 658.01 655.152 658.01 638.041C658.045 632.265 659.622 626.615 662.56 621.734C665.499 616.853 669.682 612.936 674.634 610.428V610.428Z" fill="#009688"/>
<path d="M745.01 570H734.01V785H745.01V570Z" fill="url(#paint1_linear)"/>
<path d="M743.01 570H736.01V785H743.01V570Z" fill="#795548"/>
<path d="M705.812 592.939L701.412 597.47L737.916 636.587L742.315 632.056L705.812 592.939Z" fill="#795548"/>
<path d="M756.174 671.368L718.333 699.265L721.872 704.562L759.713 676.666L756.174 671.368Z" fill="#795548"/>
<path d="M745.244 614.316C749.039 609.756 751.858 604.393 753.511 598.59C755.163 592.786 755.611 586.678 754.823 580.677C754.035 574.677 752.03 568.924 748.943 563.807C745.857 558.691 741.761 554.33 736.932 551.019C739.429 546.96 740.754 542.227 740.746 537.394C740.746 523.723 730.434 512.642 717.708 512.642C712.679 512.681 707.799 514.442 703.809 517.658C699.819 520.873 696.936 525.368 695.598 530.461C692.6 525.059 688.311 520.573 683.156 517.447C678 514.322 672.157 512.665 666.204 512.642C647.242 512.642 631.866 529.158 631.866 549.53C631.861 553.869 632.572 558.176 633.967 562.26C633.275 562.207 632.575 562.145 631.866 562.145C616.676 562.145 604.304 575.443 604.304 591.755C604.304 592.765 604.355 593.758 604.448 594.742C598.253 597.659 592.998 602.405 589.323 608.401C585.648 614.398 583.711 621.387 583.747 628.518C583.747 648.828 599.072 665.291 617.967 665.291C619.948 665.288 621.925 665.101 623.874 664.732C623.773 665.956 623.714 667.197 623.714 668.447C623.714 691.23 640.904 709.705 662.12 709.705C669.959 709.708 677.604 707.139 683.985 702.356C689.122 707.088 695.719 709.7 702.551 709.705C718.4 709.705 731.244 695.902 731.244 678.881C731.244 678.145 731.185 677.418 731.143 676.691H731.244C748.215 676.691 761.962 661.913 761.962 643.687C761.988 637.655 760.445 631.731 757.498 626.555C754.552 621.378 750.314 617.146 745.244 614.316V614.316Z" fill="url(#paint2_linear)"/>
<path d="M741.188 614.448C744.762 610.167 747.417 605.133 748.973 599.687C750.528 594.24 750.949 588.508 750.206 582.877C749.463 577.245 747.573 571.847 744.665 567.045C741.757 562.243 737.898 558.15 733.349 555.042C735.703 551.23 736.951 546.786 736.942 542.248C736.942 529.409 727.222 519.009 715.222 519.009C710.488 519.053 705.898 520.709 702.144 523.726C698.39 526.744 695.678 530.958 694.417 535.731C691.592 530.658 687.548 526.445 682.687 523.51C677.827 520.575 672.317 519.021 666.705 519C648.832 519 634.341 534.508 634.341 553.633C634.337 557.707 635.008 561.75 636.324 565.585C635.671 565.532 635.01 565.478 634.341 565.478C619.993 565.478 608.366 577.891 608.366 593.275C608.366 594.224 608.409 595.155 608.502 596.077C602.668 598.822 597.721 603.281 594.261 608.91C590.801 614.54 588.977 621.099 589.01 627.792C589.01 646.855 603.417 662.31 621.273 662.31C623.146 662.308 625.015 662.133 626.858 661.786C626.765 662.939 626.705 664.101 626.705 665.271C626.705 686.666 642.909 704 662.9 704C670.289 704.003 677.495 701.591 683.51 697.102C688.352 701.544 694.57 703.996 701.01 704C715.942 704 728.052 691.046 728.052 675.06C728.052 674.368 728.001 673.685 727.959 673.003H728.052C744.044 673.003 757.01 659.127 757.01 642.014C757.03 636.346 755.567 630.78 752.777 625.92C749.988 621.06 745.98 617.093 741.188 614.448V614.448Z" fill="#00897B"/>
<path d="M684.01 570H676.01V789H684.01V570Z" fill="url(#paint3_linear)"/>
<path d="M682.01 573H678.01V789H682.01V573Z" fill="#795548"/>
<path d="M712.118 597.309L677.555 636.519L680.645 639.524L715.208 600.314L712.118 597.309Z" fill="#795548"/>
<path d="M624.535 676.053L622.024 679.604L657.857 707.56L660.367 704.009L624.535 676.053Z" fill="#795548"/>
<path d="M583.941 678.287C579.433 673.245 576.922 666.588 576.92 659.671C576.947 654.902 578.149 650.222 580.408 646.087C582.668 641.951 585.909 638.501 589.815 636.072C588.062 633.399 587.124 630.23 587.123 626.985C587.123 617.871 594.405 610.478 603.385 610.478C606.854 610.441 610.242 611.576 613.051 613.714C615.861 615.853 617.942 618.883 618.988 622.357C621.207 618.693 624.274 615.681 627.904 613.603C631.534 611.525 635.606 610.45 639.74 610.478C653.124 610.478 663.977 621.488 663.977 635.07C663.979 637.972 663.475 640.85 662.491 643.563C662.981 643.563 663.47 643.483 663.977 643.483C674.719 643.483 683.386 652.348 683.386 663.225C683.385 663.892 683.352 664.558 683.285 665.22C687.569 667.034 691.244 670.144 693.844 674.154C696.445 678.164 697.854 682.894 697.893 687.746C697.893 701.283 687.083 712.259 673.74 712.259C672.327 712.259 670.915 712.135 669.521 711.886C669.597 712.702 669.639 713.526 669.639 714.36C669.639 729.554 657.504 741.842 642.533 741.842C637.07 741.868 631.722 740.193 627.166 737.028C623.466 740.195 618.833 741.912 614.06 741.886C602.878 741.886 593.806 732.684 593.806 721.336C593.806 720.84 593.806 720.361 593.882 719.883H593.806C581.831 719.883 572.126 710.033 572.126 697.879C572.156 693.78 573.279 689.772 575.367 686.309C577.455 682.846 580.426 680.067 583.941 678.287V678.287Z" fill="url(#paint4_linear)"/>
<path d="M586.312 678.003C582.005 673.178 579.599 666.801 579.585 660.169C579.61 655.597 580.757 651.109 582.913 647.143C585.069 643.177 588.161 639.869 591.887 637.54C590.217 634.977 589.322 631.939 589.323 628.827C589.323 620.088 596.269 613.001 604.829 613.001C608.139 612.964 611.372 614.052 614.052 616.104C616.732 618.155 618.717 621.062 619.714 624.396C621.828 620.882 624.753 617.993 628.214 616C631.675 614.007 635.559 612.975 639.501 613.001C652.266 613.001 662.618 623.561 662.618 636.59C662.621 639.373 662.142 642.133 661.205 644.734C661.676 644.734 662.138 644.663 662.618 644.663C672.86 644.663 681.168 653.135 681.168 663.589C681.169 664.227 681.138 664.864 681.076 665.498C685.162 667.238 688.666 670.219 691.147 674.064C693.627 677.909 694.972 682.445 695.01 687.098C695.01 700.082 684.692 710.606 671.969 710.606C670.633 710.606 669.3 710.487 667.983 710.251C668.05 711.033 668.092 711.823 668.092 712.622C668.092 727.188 656.521 739 642.242 739C637.003 739.013 631.88 737.378 627.526 734.302C624.003 737.352 619.585 739.013 615.03 739C604.367 739 595.688 730.181 595.688 719.292C595.688 718.822 595.688 718.36 595.756 717.898H595.688C584.269 717.898 575.01 708.448 575.01 696.796C575.04 692.86 576.115 689.013 578.113 685.691C580.111 682.368 582.952 679.705 586.312 678.003V678.003Z" fill="#009688"/>
<path d="M614 685H606V831H614V685Z" fill="url(#paint5_linear)"/>
<path d="M612 685H608V831H612V685Z" fill="#795548"/>
<path d="M587.135 700.283L584.139 703.367L609.011 730.019L612.006 726.935L587.135 700.283Z" fill="#795548"/>
<path d="M635.102 730.555L609.315 749.565L611.725 753.172L637.511 734.162L635.102 730.555Z" fill="#795548"/>
<path d="M655.31 682.632C657.862 679.573 659.759 675.974 660.871 672.079C661.984 668.183 662.286 664.081 661.756 660.052C661.227 656.023 659.88 652.161 657.805 648.727C655.73 645.293 652.977 642.368 649.732 640.15C651.396 637.42 652.275 634.243 652.263 631.001C652.354 627.044 651.062 623.188 648.632 620.163C646.202 617.137 642.802 615.15 639.073 614.578C635.344 614.005 631.545 614.886 628.392 617.054C625.239 619.222 622.951 622.528 621.959 626.347C619.948 622.723 617.071 619.714 613.614 617.617C610.157 615.519 606.238 614.406 602.245 614.388C589.519 614.388 579.198 625.469 579.198 639.148C579.195 642.061 579.672 644.952 580.608 647.694C580.144 647.694 579.671 647.614 579.198 647.614C576.741 647.643 574.314 648.18 572.055 649.195C569.795 650.209 567.748 651.681 566.03 653.527C564.313 655.373 562.958 657.556 562.043 659.952C561.129 662.347 560.672 664.909 560.7 667.49C560.7 668.164 560.7 668.837 560.793 669.493C556.634 671.452 553.108 674.639 550.642 678.665C548.175 682.691 546.876 687.383 546.902 692.17C546.902 705.796 557.189 716.851 569.873 716.851C571.206 716.85 572.536 716.726 573.848 716.479C573.781 717.303 573.738 718.128 573.738 718.97C573.738 734.262 585.283 746.664 599.511 746.664C604.772 746.667 609.903 744.944 614.187 741.735C617.635 744.911 622.065 746.663 626.651 746.664C629.209 746.634 631.736 746.075 634.088 745.019C636.44 743.963 638.571 742.43 640.359 740.509C642.148 738.588 643.558 736.315 644.51 733.821C645.463 731.327 645.938 728.66 645.909 725.973C645.909 725.477 645.909 724.989 645.841 724.502H645.909C657.301 724.502 666.534 714.581 666.534 702.339C666.55 698.291 665.513 694.316 663.535 690.843C661.557 687.369 658.713 684.53 655.31 682.632V682.632Z" fill="url(#paint6_linear)"/>
<path d="M594 687H589V834H594V687Z" fill="url(#paint7_linear)"/>
<path d="M593 689H590V834H593V689Z" fill="#795548"/>
<path d="M613.061 705.209L589.862 731.526L591.937 733.544L615.136 707.226L613.061 705.209Z" fill="#795548"/>
<path d="M567.705 735.252L566.019 737.637L590.07 756.401L591.756 754.016L567.705 735.252Z" fill="#795548"/>
<path d="M605.01 581H367.01V803H605.01V581Z" fill="url(#paint8_linear)"/>
<path d="M599.01 581H211.01V796H599.01V581Z" fill="white"/>
<path d="M618.01 602H236.01V497H604.065C607.764 497 611.311 498.547 613.926 501.3C616.541 504.054 618.01 507.788 618.01 511.682V602Z" fill="url(#paint9_linear)"/>
<path d="M236.01 502H601.055C604.756 502 608.306 503.529 610.923 506.25C613.54 508.972 615.01 512.663 615.01 516.512V599H236.01V502Z" fill="#32CD32"/>
<path opacity="0.7" d="M236.01 502H601.055C604.756 502 608.306 503.529 610.923 506.25C613.54 508.972 615.01 512.663 615.01 516.512V599H236.01V502Z" fill="white"/>
<path d="M235.51 384L104.01 481.318V563.32V803H367.01V563.32V481.318L235.51 384Z" fill="url(#paint10_linear)"/>
<path d="M398.26 472.33L250.26 364.32L102.26 472.33V563.32H398.26V472.33Z" fill="#32CD32"/>
<path opacity="0.5" d="M398.26 472.33L250.26 364.32L102.26 472.33V563.32H398.26V472.33Z" fill="white"/>
<path d="M361.01 560H112.01V796H361.01V560Z" fill="white"/>
<path d="M417.26 526.32L250.26 407.07L81.26 526.32L70.26 484.38L250.26 353.37L430.26 484.38L417.26 526.32Z" fill="url(#paint11_linear)"/>
<path d="M415.73 520.18L250.26 399.75L84.8 520.18L77.73 482.47L250.26 356.91L422.8 482.47L415.73 520.18Z" fill="#32CD32"/>
<path opacity="0.2" d="M415.73 520.18L250.26 399.75L84.8 520.18L77.73 482.47L250.26 356.91L422.8 482.47L415.73 520.18Z" fill="black"/>
<path d="M307.01 612H166.01V796H307.01V612Z" fill="#F2F2F2"/>
<path d="M307.01 612H166.01V644H307.01V612Z" fill="#32CD32"/>
<path d="M307 796H166V828H307V796Z" fill="#32CD32"/>
<path d="M454 764C454.265 764 454.52 763.842 454.707 763.561C454.895 763.279 455 762.898 455 762.5C455 762.102 454.895 761.721 454.707 761.439C454.52 761.158 454.265 761 454 761C453.735 761 453.48 761.158 453.293 761.439C453.105 761.721 453 762.102 453 762.5C453 762.898 453.105 763.279 453.293 763.561C453.48 763.842 453.735 764 454 764V764Z" fill="#00FF00"/>
<path d="M482 664H413V799H482V664Z" fill="#F2F2F2"/>
<path d="M571 667H506V717H571V667Z" fill="#F2F2F2"/>
<path opacity="0.2" d="M571 667H506V689H571V667Z" fill="#32CD32"/>
<path d="M56.4853 738.714C52.7103 734.523 50.5978 728.978 50.578 723.209C50.6035 719.234 51.6068 715.334 53.4907 711.887C55.3745 708.441 58.0748 705.564 61.3293 703.537C59.8689 701.31 59.0862 698.67 59.0845 695.966C59.1467 692.254 60.6091 688.72 63.1504 686.14C65.6917 683.56 69.104 682.146 72.6376 682.208C75.5352 682.173 78.3665 683.119 80.7129 684.906C83.0594 686.692 84.7964 689.224 85.6674 692.128C87.5168 689.073 90.0744 686.562 93.1004 684.83C96.1263 683.098 99.5214 682.202 102.967 682.225C114.124 682.225 123.17 691.41 123.17 702.73C123.172 705.154 122.752 707.558 121.93 709.822C122.343 709.822 122.774 709.76 123.17 709.76C132.124 709.76 139.382 717.127 139.382 726.214C139.381 726.768 139.353 727.321 139.297 727.872C142.868 729.384 145.931 731.976 148.099 735.318C150.267 738.661 151.442 742.604 151.475 746.648C151.475 757.934 142.462 767.082 131.339 767.082C130.171 767.081 129.005 766.977 127.854 766.772C127.913 767.455 127.947 768.137 127.947 768.838C127.947 781.506 117.82 791.772 105.356 791.772C100.774 791.784 96.2935 790.362 92.4861 787.685C89.4055 790.339 85.5417 791.784 81.5576 791.772C72.2747 791.772 64.6796 784.103 64.6796 774.635C64.6796 774.228 64.6796 773.82 64.7387 773.421H64.6796C54.6963 773.421 46.6032 765.203 46.6032 755.079C46.6247 751.652 47.5626 748.301 49.3099 745.407C51.0572 742.514 53.5436 740.194 56.4853 738.714V738.714Z" fill="url(#paint12_linear)"/>
<path d="M58.3837 738.659C54.8025 734.672 52.8064 729.409 52.8006 723.939C52.8214 720.165 53.7764 716.461 55.5727 713.188C57.3689 709.915 59.9451 707.184 63.0503 705.262C61.6582 703.146 60.9134 700.637 60.9146 698.069C60.943 696.323 61.3001 694.6 61.9655 692.998C62.6308 691.396 63.5914 689.947 64.7923 688.734C65.9932 687.52 67.4109 686.566 68.9644 685.926C70.518 685.286 72.1769 684.972 73.8466 685.002C76.6039 684.973 79.2972 685.871 81.5299 687.563C83.7627 689.255 85.4168 691.653 86.2488 694.402C88.0121 691.502 90.451 689.118 93.3366 687.474C96.2222 685.83 99.4599 684.979 102.746 685.002C113.382 685.002 122.009 693.716 122.009 704.47C122.012 706.766 121.613 709.043 120.832 711.188C121.219 711.188 121.614 711.127 122.009 711.127C130.552 711.127 137.472 718.161 137.472 726.752C137.473 727.278 137.448 727.803 137.397 728.326C140.801 729.765 143.72 732.227 145.786 735.402C147.851 738.576 148.97 742.32 149 746.159C149 756.878 140.407 765.566 129.795 765.566C128.668 765.566 127.543 765.466 126.432 765.267C126.491 765.909 126.525 766.568 126.525 767.228C126.525 779.248 116.88 789 104.974 789C100.621 789 96.3652 787.647 92.7484 785.113C89.8117 787.632 86.1284 789.003 82.3305 788.991C73.443 788.991 66.237 781.71 66.237 772.724C66.237 772.337 66.237 771.95 66.2959 771.572H66.237C56.7188 771.572 49 763.772 49 754.152C49.0248 750.911 49.917 747.742 51.5754 745.004C53.2338 742.265 55.5923 740.067 58.3837 738.659V738.659Z" fill="#009688"/>
<path d="M109.89 700.11H102.39V837.72H109.89V700.11Z" fill="url(#paint13_linear)"/>
<path d="M108.33 700.11H104.19V837.72H108.33V700.11Z" fill="#795548"/>
<path d="M83.5863 714.803L80.6299 717.701L105.201 742.766L108.158 739.868L83.5863 714.803Z" fill="#795548"/>
<path d="M130.972 743.275L105.499 761.151L107.877 764.54L133.35 746.664L130.972 743.275Z" fill="#795548"/>
<path d="M31.71 692.09C27.2367 687.363 24.7334 681.108 24.71 674.6C24.7402 670.117 25.9291 665.717 28.1614 661.829C30.3937 657.941 33.5935 654.696 37.45 652.41C35.7195 649.898 34.792 646.92 34.79 643.87C34.8636 639.683 36.5965 635.696 39.6079 632.786C42.6193 629.876 46.6628 628.28 50.85 628.35C54.2837 628.311 57.6387 629.378 60.4191 631.393C63.1995 633.409 65.2579 636.265 66.29 639.54C68.4815 636.094 71.5122 633.262 75.0979 631.308C78.6836 629.354 82.7067 628.343 86.79 628.37C100.01 628.37 110.73 638.73 110.73 651.5C110.733 654.234 110.234 656.945 109.26 659.5C109.75 659.5 110.26 659.43 110.73 659.43C121.34 659.43 129.94 667.74 129.94 677.99C129.939 678.614 129.906 679.239 129.84 679.86C134.071 681.566 137.701 684.489 140.27 688.26C142.839 692.03 144.231 696.478 144.27 701.04C144.27 713.77 133.59 724.09 120.41 724.09C119.026 724.089 117.645 723.972 116.28 723.74C116.35 724.51 116.39 725.28 116.39 726.07C116.39 740.36 104.39 751.94 89.62 751.94C84.1913 751.954 78.8817 750.349 74.37 747.33C70.7195 750.323 66.141 751.953 61.42 751.94C50.42 751.94 41.42 743.29 41.42 732.61C41.42 732.15 41.42 731.69 41.49 731.24H41.42C29.59 731.24 20 721.97 20 710.55C20.0255 706.685 21.1368 702.904 23.2074 699.64C25.2779 696.376 28.2241 693.76 31.71 692.09Z" fill="url(#paint14_linear)"/>
<path d="M13.83 726.01C9.57092 721.476 7.19692 715.491 7.19002 709.27C7.21481 704.978 8.35064 700.766 10.4869 697.044C12.6231 693.322 15.687 690.216 19.38 688.03C17.7244 685.624 16.8386 682.771 16.84 679.85C16.8739 677.864 17.2986 675.905 18.0899 674.083C18.8812 672.262 20.0235 670.614 21.4518 669.234C22.88 667.854 24.5661 666.769 26.4137 666.041C28.2614 665.313 30.2344 664.956 32.22 664.99C35.4993 664.957 38.7025 665.978 41.3579 667.903C44.0133 669.827 45.9806 672.553 46.97 675.68C49.0672 672.382 51.9677 669.671 55.3995 667.801C58.8314 665.932 62.6819 664.964 66.59 664.99C79.24 664.99 89.5 674.9 89.5 687.13C89.5026 689.741 89.0281 692.33 88.1 694.77C88.56 694.77 89.03 694.7 89.5 694.7C99.66 694.7 107.89 702.7 107.89 712.47C107.891 713.068 107.861 713.665 107.8 714.26C111.848 715.896 115.321 718.696 117.777 722.306C120.233 725.916 121.564 730.174 121.6 734.54C121.6 746.73 111.38 756.61 98.76 756.61C97.4195 756.61 96.0813 756.496 94.76 756.27C94.83 757 94.87 757.75 94.87 758.5C94.87 772.17 83.4 783.26 69.24 783.26C64.0624 783.26 59.0015 781.722 54.7 778.84C51.2074 781.704 46.8268 783.263 42.31 783.25C31.74 783.25 23.17 774.97 23.17 764.75C23.17 764.31 23.17 763.87 23.24 763.44H23.17C11.85 763.44 2.67001 754.57 2.67001 743.63C2.69954 739.944 3.76057 736.34 5.73294 733.226C7.70531 730.112 10.5102 727.612 13.83 726.01Z" fill="#009688"/>
<path d="M60.89 700.11H53.39V837.72H60.89V700.11Z" fill="url(#paint15_linear)"/>
<path d="M59.33 700.11H55.19V837.72H59.33V700.11Z" fill="#795548"/>
<path d="M34.5951 714.804L31.6387 717.703L56.21 742.768L59.1664 739.87L34.5951 714.804Z" fill="#795548"/>
<path d="M81.9731 743.282L56.4998 761.159L58.878 764.548L84.3513 746.671L81.9731 743.282Z" fill="#795548"/>
<path d="M143.18 693.18C145.705 690.301 147.582 686.913 148.683 683.245C149.784 679.577 150.083 675.716 149.561 671.922C149.038 668.128 147.706 664.491 145.654 661.257C143.603 658.024 140.88 655.269 137.67 653.18C139.326 650.618 140.205 647.631 140.2 644.58C140.292 640.857 139.017 637.229 136.617 634.381C134.216 631.534 130.856 629.664 127.171 629.125C123.485 628.586 119.73 629.415 116.615 631.455C113.499 633.496 111.239 636.607 110.26 640.2C108.273 636.79 105.429 633.958 102.01 631.985C98.5918 630.012 94.7171 628.965 90.77 628.95C87.7453 628.98 84.7562 629.607 81.974 630.793C79.1917 631.98 76.6708 633.704 74.5557 635.867C72.4407 638.029 70.7729 640.588 69.648 643.396C68.5231 646.203 67.963 649.206 68 652.23C67.9999 654.957 68.4701 657.663 69.39 660.23C68.93 660.23 68.47 660.16 68 660.16C65.5638 660.185 63.1565 660.691 60.9166 661.65C58.6767 662.608 56.6485 664 54.9487 665.746C53.2488 667.491 51.9109 669.555 51.0118 671.82C50.1128 674.084 49.6703 676.504 49.71 678.94C49.71 679.58 49.71 680.21 49.8 680.83C45.6935 682.673 42.2108 685.669 39.7751 689.453C37.3394 693.238 36.0557 697.649 36.08 702.15C36.0239 708.233 38.3799 714.091 42.6324 718.44C46.8849 722.79 52.6874 725.278 58.77 725.36C60.0878 725.36 61.4029 725.243 62.7 725.01C62.63 725.78 62.59 726.56 62.59 727.35C62.59 741.73 73.99 753.35 88.05 753.35C93.2482 753.349 98.3166 751.727 102.55 748.71C105.955 751.698 110.33 753.347 114.86 753.35C119.958 753.287 124.822 751.203 128.384 747.556C131.947 743.909 133.916 738.998 133.86 733.9C133.86 733.43 133.86 732.98 133.79 732.52H133.86C139.323 732.457 144.537 730.227 148.356 726.321C152.176 722.416 154.289 717.153 154.23 711.69C154.246 707.892 153.226 704.161 151.279 700.899C149.331 697.637 146.531 694.969 143.18 693.18Z" fill="url(#paint16_linear)"/>
<path d="M120.23 727.06C122.592 724.358 124.347 721.18 125.375 717.742C126.403 714.303 126.681 710.684 126.19 707.129C125.699 703.574 124.45 700.165 122.528 697.134C120.606 694.103 118.056 691.52 115.05 689.56C116.602 687.155 117.425 684.352 117.42 681.49C117.513 677.992 116.32 674.581 114.067 671.903C111.814 669.225 108.657 667.467 105.195 666.96C101.732 666.454 98.2038 667.235 95.2782 669.155C92.3526 671.075 90.2327 674.002 89.32 677.38C87.454 674.178 84.7838 671.519 81.5739 669.667C78.364 667.815 74.7259 666.833 71.02 666.82C65.2964 666.899 59.8377 669.245 55.841 673.343C51.8444 677.441 49.6359 682.956 49.7 688.68C49.6979 691.25 50.1411 693.801 51.01 696.22C50.58 696.22 50.14 696.15 49.7 696.15C45.1002 696.203 40.7095 698.08 37.4935 701.369C34.2775 704.658 32.4993 709.09 32.55 713.69C32.55 714.29 32.55 714.88 32.64 715.46C28.7866 717.188 25.5181 719.998 23.2316 723.548C20.9451 727.099 19.739 731.237 19.76 735.46C19.6987 741.172 21.9078 746.675 25.9018 750.759C29.8958 754.843 35.348 757.174 41.06 757.24C42.2973 757.239 43.5322 757.129 44.75 756.91C44.69 757.64 44.65 758.37 44.65 759.11C44.65 772.61 55.35 783.55 68.55 783.55C73.429 783.553 78.1872 782.032 82.16 779.2C85.3547 781.995 89.4549 783.537 93.7 783.54C96.0717 783.514 98.4151 783.021 100.596 782.089C102.777 781.157 104.754 779.805 106.412 778.109C108.071 776.414 109.379 774.408 110.262 772.207C111.145 770.005 111.586 767.652 111.56 765.28C111.56 764.84 111.56 764.41 111.5 763.98H111.56C114.1 763.951 116.609 763.422 118.945 762.424C121.28 761.425 123.396 759.977 125.171 758.16C126.947 756.344 128.347 754.196 129.292 751.838C130.238 749.48 130.709 746.96 130.68 744.42C130.685 740.849 129.714 737.344 127.872 734.285C126.031 731.225 123.388 728.727 120.23 727.06Z" fill="#00897B"/>
<path d="M82.52 699.16H76.97V837.25H82.52V699.16Z" fill="url(#paint17_linear)"/>
<path d="M81.34 701.1H78.55V837.25H81.34V701.1Z" fill="#795548"/>
<path d="M101.227 716.441L78.3098 741.189L80.3569 743.085L103.274 718.336L101.227 716.441Z" fill="#795548"/>
<path d="M56.3922 744.686L54.7287 746.926L78.4921 764.575L80.1556 762.335L56.3922 744.686Z" fill="#795548"/>
<path d="M652.488 682.527C654.875 679.632 656.648 676.228 657.687 672.544C658.726 668.86 659.007 664.982 658.512 661.173C658.016 657.364 656.755 653.712 654.814 650.464C652.873 647.216 650.298 644.449 647.262 642.348C648.831 639.773 649.664 636.772 649.66 633.705C649.745 629.964 648.536 626.318 646.261 623.457C643.986 620.596 640.803 618.718 637.312 618.176C633.821 617.634 630.263 618.467 627.311 620.517C624.359 622.567 622.217 625.693 621.288 629.304C619.404 625.875 616.708 623.029 613.468 621.046C610.227 619.064 606.555 618.014 602.814 618C590.896 618 581.242 628.482 581.242 641.411C581.239 644.165 581.686 646.899 582.564 649.491C582.126 649.491 581.722 649.42 581.242 649.42C576.604 649.476 572.177 651.482 568.931 654.997C565.686 658.512 563.887 663.249 563.93 668.17C563.93 668.813 563.93 669.446 564.014 670.062C560.122 671.914 556.822 674.924 554.513 678.729C552.205 682.533 550.988 686.967 551.01 691.491C551.01 704.375 560.639 714.821 572.514 714.821C573.762 714.819 575.007 714.7 576.235 714.464C576.167 715.241 576.134 716.027 576.134 716.821C576.134 731.277 586.94 743 600.264 743C605.191 743.004 609.996 741.374 614.008 738.339C617.234 741.344 621.38 743.001 625.673 743C630.507 742.941 635.122 740.848 638.503 737.182C641.883 733.515 643.753 728.575 643.701 723.446C643.701 722.982 643.701 722.554 643.634 722.063H643.701C646.266 722.032 648.799 721.466 651.157 720.397C653.515 719.328 655.652 717.777 657.445 715.832C659.238 713.887 660.652 711.586 661.607 709.061C662.561 706.536 663.038 703.836 663.009 701.116C663.016 697.295 662.04 693.545 660.186 690.269C658.332 686.993 655.671 684.316 652.488 682.527V682.527Z" fill="#00897B"/>
</g>
<path d="M551.24 124C538.93 124 538.91 143.12 551.24 143.12C563.57 143.12 563.56 124 551.24 124Z" fill="#32CD32"/>
<path d="M640.441 71.0221C607.3 70.3428 577.13 85.395 561.1 108.154C555.867 115.563 570.726 122.111 575.929 114.739C589.208 95.9279 614.444 83.9459 641.712 84.6071C670.31 85.2592 696.337 100.067 710.115 120.616C715.349 128.414 729.038 121.323 723.844 113.57C707.124 88.6192 674.683 71.7285 640.441 71.0221Z" fill="#32CD32"/>
<path d="M745.09 99.9726C730.948 85.26 714.005 73.5252 695.26 65.4589C676.514 57.3927 656.344 53.1581 635.937 53.0043C615.531 52.8506 595.299 56.7808 576.434 64.5637C557.569 72.3465 540.452 83.8248 526.09 98.3227C468.18 156.703 467.2 251.753 523.84 311.323C548.719 337.526 582.069 354.078 617.984 358.048C653.898 362.018 690.058 353.149 720.06 333.013L830.66 448.013C831.337 448.719 832.147 449.284 833.043 449.677C833.939 450.07 834.903 450.282 835.881 450.302C836.859 450.321 837.832 450.147 838.743 449.791C839.653 449.434 840.485 448.901 841.19 448.223L868.74 421.733C869.446 421.056 870.011 420.246 870.404 419.35C870.797 418.454 871.009 417.489 871.029 416.511C871.048 415.533 870.875 414.561 870.518 413.65C870.161 412.739 869.628 411.907 868.95 411.203L758.35 296.203C779.557 267.153 789.852 231.56 787.427 195.675C785.002 159.789 770.012 125.905 745.09 99.9726ZM710.64 284.893C695.042 299.897 675.345 309.939 654.04 313.749C632.735 317.559 610.778 314.965 590.947 306.297C571.116 297.628 554.3 283.274 542.627 265.048C530.954 246.823 524.947 225.545 525.367 203.906C525.787 182.267 532.613 161.239 544.984 143.48C557.355 125.72 574.714 112.028 594.867 104.135C615.019 96.2416 637.059 94.5013 658.201 99.1342C679.342 103.767 698.635 114.565 713.64 130.163C723.603 140.519 731.428 152.737 736.669 166.118C741.91 179.499 744.464 193.781 744.186 208.149C743.907 222.517 740.801 236.69 735.046 249.857C729.29 263.025 720.997 274.93 710.64 284.893Z" fill="url(#paint18_linear)"/>
<path d="M770.314 53.203C753.956 36.5389 734.359 23.2476 712.676 14.1115C690.993 4.97535 667.663 0.179061 644.058 0.00491872C620.454 -0.169224 597.053 4.2823 575.232 13.0975C553.411 21.9126 533.611 34.9133 516.998 51.3341C450.014 117.457 448.881 225.115 514.396 292.586C543.174 322.264 581.75 341.012 623.291 345.509C664.833 350.005 706.659 339.96 741.362 317.153L869.292 447.406C870.076 448.206 871.012 448.846 872.048 449.291C873.085 449.736 874.201 449.976 875.332 449.998C876.463 450.02 877.588 449.824 878.642 449.42C879.695 449.016 880.657 448.412 881.472 447.644L913.351 417.629C914.167 416.862 914.822 415.945 915.276 414.93C915.73 413.915 915.976 412.823 915.998 411.715C916.021 410.607 915.82 409.506 915.407 408.474C914.995 407.442 914.378 406.5 913.594 405.702L785.663 275.449C810.189 242.546 822.093 202.234 819.286 161.591C816.48 120.949 799.141 82.5733 770.314 53.203V53.203ZM730.466 262.65C712.424 279.645 689.641 291.019 664.997 295.334C640.354 299.649 614.957 296.712 592.018 286.893C569.079 277.075 549.629 260.816 536.127 240.174C522.625 219.531 515.677 195.431 516.162 170.922C516.648 146.413 524.544 122.595 538.853 102.48C553.163 82.3658 573.242 66.8577 596.552 57.9174C619.862 48.977 645.356 47.0059 669.81 52.2533C694.264 57.5006 716.58 69.7308 733.936 87.3973C745.46 99.1276 754.512 112.966 760.574 128.121C766.636 143.277 769.591 159.454 769.269 175.728C768.946 192.001 765.354 208.054 758.696 222.968C752.038 237.882 742.446 251.366 730.466 262.65V262.65Z" fill="#32CD32"/>
<defs>
<linearGradient id="paint0_linear" x1="746.721" y1="703.881" x2="746.721" y2="511.064" gradientUnits="userSpaceOnUse">
<stop stop-color="#808080" stop-opacity="0.25"/>
<stop offset="0.54" stop-color="#808080" stop-opacity="0.12"/>
<stop offset="1" stop-color="#808080" stop-opacity="0.1"/>
</linearGradient>
<linearGradient id="paint1_linear" x1="10041.2" y1="100625" x2="10041.2" y2="48543" gradientUnits="userSpaceOnUse">
<stop stop-color="#808080" stop-opacity="0.25"/>
<stop offset="0.54" stop-color="#808080" stop-opacity="0.12"/>
<stop offset="1" stop-color="#808080" stop-opacity="0.1"/>
</linearGradient>
<linearGradient id="paint2_linear" x1="163416" y1="124700" x2="163416" y2="80892.7" gradientUnits="userSpaceOnUse">
<stop stop-color="#808080" stop-opacity="0.25"/>
<stop offset="0.54" stop-color="#808080" stop-opacity="0.12"/>
<stop offset="1" stop-color="#808080" stop-opacity="0.1"/>
</linearGradient>
<linearGradient id="paint3_linear" x1="6880.41" y1="103461" x2="6880.41" y2="49415.8" gradientUnits="userSpaceOnUse">
<stop stop-color="#808080" stop-opacity="0.25"/>
<stop offset="0.54" stop-color="#808080" stop-opacity="0.12"/>
<stop offset="1" stop-color="#808080" stop-opacity="0.1"/>
</linearGradient>
<linearGradient id="paint4_linear" x1="109844" y1="88192" x2="109844" y2="68715.9" gradientUnits="userSpaceOnUse">
<stop stop-color="#808080" stop-opacity="0.25"/>
<stop offset="0.54" stop-color="#808080" stop-opacity="0.12"/>
<stop offset="1" stop-color="#808080" stop-opacity="0.1"/>
</linearGradient>
<linearGradient id="paint5_linear" x1="6338.48" y1="70645.3" x2="6338.48" y2="46545.1" gradientUnits="userSpaceOnUse">
<stop stop-color="#808080" stop-opacity="0.25"/>
<stop offset="0.54" stop-color="#808080" stop-opacity="0.12"/>
<stop offset="1" stop-color="#808080" stop-opacity="0.1"/>
</linearGradient>
<linearGradient id="paint6_linear" x1="100477" y1="89487.2" x2="100477" y2="69750.1" gradientUnits="userSpaceOnUse">
<stop stop-color="#808080" stop-opacity="0.25"/>
<stop offset="0.54" stop-color="#808080" stop-opacity="0.12"/>
<stop offset="1" stop-color="#808080" stop-opacity="0.1"/>
</linearGradient>
<linearGradient id="paint7_linear" x1="4061.5" y1="71571.9" x2="4061.5" y2="47222.8" gradientUnits="userSpaceOnUse">
<stop stop-color="#808080" stop-opacity="0.25"/>
<stop offset="0.54" stop-color="#808080" stop-opacity="0.12"/>
<stop offset="1" stop-color="#808080" stop-opacity="0.1"/>
</linearGradient>
<linearGradient id="paint8_linear" x1="130377" y1="108546" x2="130377" y2="52824.3" gradientUnits="userSpaceOnUse">
<stop stop-color="#808080" stop-opacity="0.25"/>
<stop offset="0.54" stop-color="#808080" stop-opacity="0.12"/>
<stop offset="1" stop-color="#808080" stop-opacity="0.1"/>
</linearGradient>
<linearGradient id="paint9_linear" x1="238058" y1="53919.9" x2="238058" y2="41529.9" gradientUnits="userSpaceOnUse">
<stop stop-color="#808080" stop-opacity="0.25"/>
<stop offset="0.54" stop-color="#808080" stop-opacity="0.12"/>
<stop offset="1" stop-color="#808080" stop-opacity="0.1"/>
</linearGradient>
<linearGradient id="paint10_linear" x1="65659.4" y1="204156" x2="65659.4" y2="5969.26" gradientUnits="userSpaceOnUse">
<stop stop-color="#808080" stop-opacity="0.25"/>
<stop offset="0.54" stop-color="#808080" stop-opacity="0.12"/>
<stop offset="1" stop-color="#808080" stop-opacity="0.1"/>
</linearGradient>
<linearGradient id="paint11_linear" x1="90163.9" y1="30676.7" x2="90163.9" y2="763.263" gradientUnits="userSpaceOnUse">
<stop stop-color="#808080" stop-opacity="0.25"/>
<stop offset="0.54" stop-color="#808080" stop-opacity="0.12"/>
<stop offset="1" stop-color="#808080" stop-opacity="0.1"/>
</linearGradient>
<linearGradient id="paint12_linear" x1="27043.7" y1="75665" x2="27043.7" y2="62127" gradientUnits="userSpaceOnUse">
<stop stop-color="#808080" stop-opacity="0.25"/>
<stop offset="0.54" stop-color="#808080" stop-opacity="0.12"/>
<stop offset="1" stop-color="#808080" stop-opacity="0.1"/>
</linearGradient>
<linearGradient id="paint13_linear" x1="898.44" y1="67677.7" x2="898.44" y2="48741.1" gradientUnits="userSpaceOnUse">
<stop stop-color="#808080" stop-opacity="0.25"/>
<stop offset="0.54" stop-color="#808080" stop-opacity="0.12"/>
<stop offset="1" stop-color="#808080" stop-opacity="0.1"/>
</linearGradient>
<linearGradient id="paint14_linear" x1="25921.6" y1="85210" x2="25921.6" y2="69938.9" gradientUnits="userSpaceOnUse">
<stop stop-color="#808080" stop-opacity="0.25"/>
<stop offset="0.54" stop-color="#808080" stop-opacity="0.12"/>
<stop offset="1" stop-color="#808080" stop-opacity="0.1"/>
</linearGradient>
<linearGradient id="paint15_linear" x1="481.94" y1="67677.7" x2="481.94" y2="48741.1" gradientUnits="userSpaceOnUse">
<stop stop-color="#808080" stop-opacity="0.25"/>
<stop offset="0.54" stop-color="#808080" stop-opacity="0.12"/>
<stop offset="1" stop-color="#808080" stop-opacity="0.1"/>
</linearGradient>
<linearGradient id="paint16_linear" x1="26204.4" y1="85948.7" x2="26204.4" y2="70474.6" gradientUnits="userSpaceOnUse">
<stop stop-color="#808080" stop-opacity="0.25"/>
<stop offset="0.54" stop-color="#808080" stop-opacity="0.12"/>
<stop offset="1" stop-color="#808080" stop-opacity="0.1"/>
</linearGradient>
<linearGradient id="paint17_linear" x1="519.582" y1="67845.4" x2="519.582" y2="48776.6" gradientUnits="userSpaceOnUse">
<stop stop-color="#808080" stop-opacity="0.25"/>
<stop offset="0.54" stop-color="#808080" stop-opacity="0.12"/>
<stop offset="1" stop-color="#808080" stop-opacity="0.1"/>
</linearGradient>
<linearGradient id="paint18_linear" x1="676.53" y1="450.333" x2="676.53" y2="53.0126" gradientUnits="userSpaceOnUse">
<stop stop-color="#B3B3B3" stop-opacity="0.25"/>
<stop offset="0.54" stop-color="#B3B3B3" stop-opacity="0.1"/>
<stop offset="1" stop-color="#B3B3B3" stop-opacity="0.05"/>
</linearGradient>
<clipPath id="clip0">
<rect width="964.26" height="486.72" fill="white" transform="translate(0 351)"/>
</clipPath>
</defs>
</svg>
