<svg width="80" height="80" viewBox="0 0 80 80" fill="none" xmlns="http://www.w3.org/2000/svg">
<path d="M77.4143 28.1703L53.4319 24.5204L42.7111 1.76068C42.4183 1.13753 41.9365 0.633076 41.3415 0.326447C39.8491 -0.445069 38.0355 0.197861 37.2893 1.76068L26.5685 24.5204L2.58607 28.1703C1.92487 28.2692 1.32035 28.5956 0.857515 29.0902C0.297973 29.6924 -0.010361 30.5026 0.000265856 31.3428C0.0108927 32.183 0.33961 32.9844 0.914189 33.5709L18.2658 51.2861L14.1664 76.301C14.0703 76.8829 14.1318 77.4814 14.3439 78.0286C14.556 78.5757 14.9104 79.0497 15.3666 79.3967C15.8229 79.7438 16.363 79.95 16.9255 79.992C17.488 80.034 18.0505 79.9101 18.5492 79.6344L40.0002 67.8242L61.4512 79.6344C62.0368 79.9608 62.7169 80.0696 63.3687 79.9509C65.0122 79.6542 66.1173 78.0221 65.834 76.301L61.7346 51.2861L79.0862 33.5709C79.5585 33.0862 79.8702 32.4532 79.9646 31.7608C80.2197 30.0298 79.0673 28.4274 77.4143 28.1703V28.1703ZM54.4331 48.7935L57.843 69.5948L40.0002 59.7827L22.1574 69.6047L25.5673 48.8034L11.1344 34.0655L31.0835 31.0288L40.0002 12.1069L48.9169 31.0288L68.866 34.0655L54.4331 48.7935Z" fill="#007F4E"/>
</svg>
