<svg width="1137" height="895" viewBox="0 0 1137 895" fill="none" xmlns="http://www.w3.org/2000/svg">
<g opacity="0.1">
<path opacity="0.1" d="M275.7 387H217V401.53H275.7V387Z" fill="black"/>
</g>
<path d="M144.264 510.611L142.313 510.172C164.069 413.421 218.743 325.563 296.264 262.78C354.873 215.389 424.579 183.693 498.818 170.678C573.058 157.662 649.389 163.755 720.624 188.383C791.858 213.011 855.654 255.363 906.002 311.452C956.35 367.541 991.596 435.521 1008.42 508.991L1006.47 509.435C960.416 307.226 783.195 166 575.5 166C370.526 166 189.166 310.93 144.264 510.611Z" fill="#3F3D56"/>
<path d="M899.633 274.218C929.631 274.218 953.948 249.9 953.948 219.903C953.948 189.905 929.631 165.587 899.633 165.587C869.636 165.587 845.318 189.905 845.318 219.903C845.318 249.9 869.636 274.218 899.633 274.218Z" fill="#FF6584"/>
<path d="M879 437.057H877V516.057H879V437.057Z" fill="#3F3D56"/>
<path d="M897.458 447.125C897.585 474.749 878.15 497.233 878.15 497.233C878.15 497.233 858.508 474.929 858.381 447.305C858.254 419.68 877.689 397.196 877.689 397.196C877.689 397.196 897.33 419.5 897.458 447.125Z" fill="#32CD32"/>
<path opacity="0.1" d="M897.458 447.125C897.585 474.749 878.15 497.233 878.15 497.233C878.15 497.233 858.508 474.929 858.381 447.305C858.254 419.68 877.689 397.196 877.689 397.196C877.689 397.196 897.33 419.5 897.458 447.125Z" fill="black"/>
<path opacity="0.4" d="M501.022 279.99C518.279 279.99 532.27 266 532.27 248.742C532.27 231.484 518.279 217.494 501.022 217.494C483.764 217.494 469.774 231.484 469.774 248.742C469.774 266 483.764 279.99 501.022 279.99Z" fill="#32CD32"/>
<path opacity="0.4" d="M443.19 285.586C455.296 285.586 465.11 275.772 465.11 263.666C465.11 251.56 455.296 241.746 443.19 241.746C431.084 241.746 421.27 251.56 421.27 263.666C421.27 275.772 431.084 285.586 443.19 285.586Z" fill="#32CD32"/>
<path opacity="0.4" d="M208.19 348.586C220.296 348.586 230.11 338.772 230.11 326.666C230.11 314.56 220.296 304.746 208.19 304.746C196.084 304.746 186.27 314.56 186.27 326.666C186.27 338.772 196.084 348.586 208.19 348.586Z" fill="#32CD32"/>
<path opacity="0.4" d="M856.312 277.419C873.57 277.419 887.56 263.429 887.56 246.171C887.56 228.913 873.57 214.923 856.312 214.923C839.054 214.923 825.064 228.913 825.064 246.171C825.064 263.429 839.054 277.419 856.312 277.419Z" fill="#32CD32"/>
<path d="M668.631 507.273C670.325 513.534 676.127 517.412 676.127 517.412C676.127 517.412 679.182 511.138 677.488 504.876C675.795 498.615 669.992 494.736 669.992 494.736C669.992 494.736 666.937 501.011 668.631 507.273Z" fill="#3F3D56"/>
<path d="M671.12 505.927C675.768 510.452 676.336 517.407 676.336 517.407C676.336 517.407 669.367 517.027 664.719 512.502C660.071 507.977 659.503 501.021 659.503 501.021C659.503 501.021 666.471 501.402 671.12 505.927Z" fill="#32CD32"/>
<path d="M68.137 460.203L64 453.308L102.614 420.21H201.908V429.863L166.052 468.478L124.679 476.752L68.137 460.203Z" fill="#3F3D56"/>
<path d="M219 439.633V418.056H206V424.86L201.908 420.21L168.81 453.308L163.293 458.824L156.398 486.406L168.81 516.745H232.247V454.687L219 439.633Z" fill="#CCCCCC"/>
<path d="M168.81 453.308H64V516.745H168.81V453.308Z" fill="#F2F2F2"/>
<path d="M154.329 473.304H132.264V492.611H154.329V473.304Z" fill="#3F3D56"/>
<path d="M123.3 472.615H103.993V516.745H123.3V472.615Z" fill="#CCCCCC"/>
<path d="M198.46 480.2V473.304H190.185V480.2H197.77H198.46Z" fill="#3F3D56"/>
<path d="M197.77 485.716H190.185V492.611H198.46V485.716H197.77Z" fill="#3F3D56"/>
<path d="M212.251 473.304H203.976V480.2H212.251V473.304Z" fill="#3F3D56"/>
<path d="M212.251 485.716H203.976V492.611H212.251V485.716Z" fill="#3F3D56"/>
<path d="M467.137 460.203L463 453.308L501.614 420.21H600.908V429.863L565.052 468.478L523.679 476.752L467.137 460.203Z" fill="#3F3D56"/>
<path d="M618 439.633V418.056H605V424.86L600.908 420.21L567.81 453.308L562.293 458.824L555.398 486.406L567.81 516.745H631.247V454.687L618 439.633Z" fill="#CCCCCC"/>
<path d="M567.81 453.308H463V516.745H567.81V453.308Z" fill="#F2F2F2"/>
<path d="M553.329 473.304H531.264V492.611H553.329V473.304Z" fill="#3F3D56"/>
<path d="M522.3 472.615H502.993V516.745H522.3V472.615Z" fill="#CCCCCC"/>
<path d="M480.928 479.51V472.615H472.654V479.51H480.238H480.928Z" fill="#3F3D56"/>
<path d="M480.238 485.026H472.654V491.922H480.928V485.026H480.238Z" fill="#3F3D56"/>
<path d="M494.719 472.615H486.444V479.51H494.719V472.615Z" fill="#3F3D56"/>
<path d="M494.719 485.026H486.444V491.922H494.719V485.026Z" fill="#3F3D56"/>
<path d="M597.46 480.2V473.304H589.185V480.2H596.77H597.46Z" fill="#3F3D56"/>
<path d="M596.77 485.716H589.185V492.611H597.46V485.716H596.77Z" fill="#3F3D56"/>
<path d="M611.251 473.304H602.976V480.2H611.251V473.304Z" fill="#3F3D56"/>
<path d="M611.251 485.716H602.976V492.611H611.251V485.716Z" fill="#3F3D56"/>
<path d="M280.515 344.361L273.62 338.844L312.234 304.367H410.148V334.707L346.711 377.459L280.515 344.361Z" fill="#3F3D56"/>
<path d="M428 323.707V305.056H415V309.624L410.148 304.367L378.429 338.844L366.018 347.119L346.773 487.722L375.796 516.745H443.246V340.223L428 323.707Z" fill="#CCCCCC"/>
<path d="M378.429 338.844H273.62V516.745H378.429V338.844Z" fill="#F2F2F2"/>
<path d="M333.609 473.304H314.302V516.745H333.609V473.304Z" fill="#CCCCCC"/>
<path d="M293.616 485.716V478.821H285.342V485.716H292.927H293.616Z" fill="#3F3D56"/>
<path d="M292.927 491.232H285.342V498.128H293.616V491.232H292.927Z" fill="#3F3D56"/>
<path d="M307.407 478.821H299.132V485.716H307.407V478.821Z" fill="#3F3D56"/>
<path d="M307.407 491.232H299.132V498.128H307.407V491.232Z" fill="#3F3D56"/>
<path d="M350.158 485.716V478.821H341.884V485.716H349.469H350.158Z" fill="#3F3D56"/>
<path d="M349.469 491.232H341.884V498.128H350.158V491.232H349.469Z" fill="#3F3D56"/>
<path d="M363.949 478.821H355.675V485.716H363.949V478.821Z" fill="#3F3D56"/>
<path d="M363.949 491.232H355.675V498.128H363.949V491.232Z" fill="#3F3D56"/>
<path d="M408.079 347.808V340.913H399.805V347.808H407.39H408.079Z" fill="#3F3D56"/>
<path d="M407.39 353.325H399.805V360.22H408.079V353.325H407.39Z" fill="#3F3D56"/>
<path d="M421.87 340.913H413.596V347.808H421.87V340.913Z" fill="#3F3D56"/>
<path d="M421.87 353.325H413.596V360.22H421.87V353.325Z" fill="#3F3D56"/>
<path d="M408.079 386.423V379.527H399.805V386.423H407.39H408.079Z" fill="#3F3D56"/>
<path d="M407.39 391.939H399.805V398.834H408.079V391.939H407.39Z" fill="#3F3D56"/>
<path d="M421.87 379.527H413.596V386.423H421.87V379.527Z" fill="#3F3D56"/>
<path d="M421.87 391.939H413.596V398.834H421.87V391.939Z" fill="#3F3D56"/>
<path d="M408.079 425.037V418.141H399.805V425.037H407.39H408.079Z" fill="#3F3D56"/>
<path d="M407.39 430.553H399.805V437.448H408.079V430.553H407.39Z" fill="#3F3D56"/>
<path d="M421.87 418.141H413.596V425.036H421.87V418.141Z" fill="#3F3D56"/>
<path d="M421.87 430.553H413.596V437.448H421.87V430.553Z" fill="#3F3D56"/>
<path d="M408.079 463.651V456.755H399.805V463.651H407.39H408.079Z" fill="#3F3D56"/>
<path d="M407.39 469.167H399.805V476.062H408.079V469.167H407.39Z" fill="#3F3D56"/>
<path d="M421.87 456.755H413.596V463.651H421.87V456.755Z" fill="#3F3D56"/>
<path d="M421.87 469.167H413.596V476.062H421.87V469.167Z" fill="#3F3D56"/>
<path d="M365.328 347.809H285.342V364.358H365.328V347.809Z" fill="#3F3D56"/>
<path d="M365.328 380.906H285.342V397.455H365.328V380.906Z" fill="#3F3D56"/>
<path d="M365.328 414.004H285.342V430.553H365.328V414.004Z" fill="#3F3D56"/>
<path d="M365.328 447.102H285.342V463.651H365.328V447.102Z" fill="#3F3D56"/>
<path d="M683.515 344.361L676.62 338.844L715.234 304.367H813.148V334.707L749.711 377.459L683.515 344.361Z" fill="#3F3D56"/>
<path d="M831 323.707V305.056H818V309.624L813.148 304.367L781.429 338.844L769.018 347.119L749.773 487.722L778.796 516.745H846.246V340.223L831 323.707Z" fill="#CCCCCC"/>
<path d="M781.429 338.844H676.62V516.745H781.429V338.844Z" fill="#F2F2F2"/>
<path d="M736.609 473.304H717.302V516.745H736.609V473.304Z" fill="#CCCCCC"/>
<path d="M696.616 485.716V478.821H688.342V485.716H695.927H696.616Z" fill="#3F3D56"/>
<path d="M695.927 491.232H688.342V498.128H696.616V491.232H695.927Z" fill="#3F3D56"/>
<path d="M710.407 478.821H702.132V485.716H710.407V478.821Z" fill="#3F3D56"/>
<path d="M710.407 491.232H702.132V498.128H710.407V491.232Z" fill="#3F3D56"/>
<path d="M753.158 485.716V478.821H744.884V485.716H752.469H753.158Z" fill="#3F3D56"/>
<path d="M752.469 491.232H744.884V498.128H753.158V491.232H752.469Z" fill="#3F3D56"/>
<path d="M766.949 478.821H758.675V485.716H766.949V478.821Z" fill="#3F3D56"/>
<path d="M766.949 491.232H758.675V498.128H766.949V491.232Z" fill="#3F3D56"/>
<path d="M811.079 347.808V340.913H802.805V347.808H810.39H811.079Z" fill="#3F3D56"/>
<path d="M810.39 353.325H802.805V360.22H811.079V353.325H810.39Z" fill="#3F3D56"/>
<path d="M824.87 340.913H816.596V347.808H824.87V340.913Z" fill="#3F3D56"/>
<path d="M824.87 353.325H816.596V360.22H824.87V353.325Z" fill="#3F3D56"/>
<path d="M811.079 386.423V379.527H802.805V386.423H810.39H811.079Z" fill="#3F3D56"/>
<path d="M810.39 391.939H802.805V398.834H811.079V391.939H810.39Z" fill="#3F3D56"/>
<path d="M824.87 379.527H816.596V386.423H824.87V379.527Z" fill="#3F3D56"/>
<path d="M824.87 391.939H816.596V398.834H824.87V391.939Z" fill="#3F3D56"/>
<path d="M811.079 425.037V418.141H802.805V425.037H810.39H811.079Z" fill="#3F3D56"/>
<path d="M810.39 430.553H802.805V437.448H811.079V430.553H810.39Z" fill="#3F3D56"/>
<path d="M824.87 418.141H816.596V425.036H824.87V418.141Z" fill="#3F3D56"/>
<path d="M824.87 430.553H816.596V437.448H824.87V430.553Z" fill="#3F3D56"/>
<path d="M811.079 463.651V456.755H802.805V463.651H810.39H811.079Z" fill="#3F3D56"/>
<path d="M810.39 469.167H802.805V476.062H811.079V469.167H810.39Z" fill="#3F3D56"/>
<path d="M824.87 456.755H816.596V463.651H824.87V456.755Z" fill="#3F3D56"/>
<path d="M824.87 469.167H816.596V476.062H824.87V469.167Z" fill="#3F3D56"/>
<path d="M768.328 347.809H688.342V364.358H768.328V347.809Z" fill="#3F3D56"/>
<path d="M768.328 380.906H688.342V397.455H768.328V380.906Z" fill="#3F3D56"/>
<path d="M768.328 414.004H688.342V430.553H768.328V414.004Z" fill="#3F3D56"/>
<path d="M768.328 447.102H688.342V463.651H768.328V447.102Z" fill="#3F3D56"/>
<path d="M904.515 344.361L897.62 338.844L936.234 304.367H1034.15V334.707L970.711 377.459L904.515 344.361Z" fill="#3F3D56"/>
<path d="M1052 323.707V305.056H1039V309.624L1034.15 304.367L1002.43 338.844L990.018 347.119L970.773 487.722L999.796 516.745H1067.25V340.223L1052 323.707Z" fill="#CCCCCC"/>
<path d="M1002.43 338.844H897.62V516.745H1002.43V338.844Z" fill="#F2F2F2"/>
<path d="M957.609 473.304H938.302V516.745H957.609V473.304Z" fill="#CCCCCC"/>
<path d="M917.616 485.716V478.821H909.342V485.716H916.927H917.616Z" fill="#3F3D56"/>
<path d="M916.927 491.232H909.342V498.128H917.616V491.232H916.927Z" fill="#3F3D56"/>
<path d="M931.407 478.821H923.132V485.716H931.407V478.821Z" fill="#3F3D56"/>
<path d="M931.407 491.232H923.132V498.128H931.407V491.232Z" fill="#3F3D56"/>
<path d="M974.158 485.716V478.821H965.884V485.716H973.469H974.158Z" fill="#3F3D56"/>
<path d="M973.469 491.232H965.884V498.128H974.158V491.232H973.469Z" fill="#3F3D56"/>
<path d="M987.949 478.821H979.675V485.716H987.949V478.821Z" fill="#3F3D56"/>
<path d="M987.949 491.232H979.675V498.128H987.949V491.232Z" fill="#3F3D56"/>
<path d="M989.328 347.809H909.342V364.358H989.328V347.809Z" fill="#3F3D56"/>
<path d="M989.328 380.906H909.342V397.455H989.328V380.906Z" fill="#3F3D56"/>
<path d="M989.328 414.004H909.342V430.553H989.328V414.004Z" fill="#3F3D56"/>
<path d="M989.328 447.102H909.342V463.651H989.328V447.102Z" fill="#3F3D56"/>
<path d="M254 437.057H252V516.057H254V437.057Z" fill="#3F3D56"/>
<path d="M272.458 447.125C272.585 474.749 253.15 497.233 253.15 497.233C253.15 497.233 233.508 474.929 233.381 447.305C233.254 419.68 252.689 397.196 252.689 397.196C252.689 397.196 272.33 419.5 272.458 447.125Z" fill="#32CD32"/>
<path d="M454 437.057H452V516.057H454V437.057Z" fill="#3F3D56"/>
<path d="M472.458 447.125C472.585 474.749 453.15 497.233 453.15 497.233C453.15 497.233 433.508 474.929 433.381 447.305C433.254 419.68 452.689 397.196 452.689 397.196C452.689 397.196 472.33 419.5 472.458 447.125Z" fill="#32CD32"/>
<path d="M853 437.057H851V516.057H853V437.057Z" fill="#3F3D56"/>
<path d="M871.458 447.125C871.585 474.749 852.15 497.233 852.15 497.233C852.15 497.233 832.508 474.929 832.381 447.305C832.254 419.68 851.689 397.196 851.689 397.196C851.689 397.196 871.33 419.5 871.458 447.125Z" fill="#32CD32"/>
<path d="M587.5 172.05C608.487 172.05 625.5 168.222 625.5 163.5C625.5 158.778 608.487 154.95 587.5 154.95C566.513 154.95 549.5 158.778 549.5 163.5C549.5 168.222 566.513 172.05 587.5 172.05Z" fill="#32CD32"/>
<path d="M630.5 44C630.5 68.3005 586.5 137 586.5 137C586.5 137 542.5 68.3005 542.5 44C542.5 32.3305 547.136 21.1389 555.387 12.8873C563.639 4.6357 574.83 0 586.5 0C598.17 0 609.361 4.6357 617.613 12.8873C625.864 21.1389 630.5 32.3305 630.5 44Z" fill="#32CD32"/>
<path d="M586.5 69C600.307 69 611.5 57.8071 611.5 44C611.5 30.1929 600.307 19 586.5 19C572.693 19 561.5 30.1929 561.5 44C561.5 57.8071 572.693 69 586.5 69Z" fill="#F2F2F2"/>
<path d="M310.287 771.8V772.088C310.287 772.28 310.383 772.376 310.575 772.376H358.095C359.823 772.376 360.687 771.608 360.687 770.072V700.376C360.687 700.184 360.591 700.088 360.399 700.088C360.015 700.088 359.823 700.184 359.823 700.376L310.287 771.8ZM283.215 810.68C278.799 810.68 274.959 809.048 271.695 805.784C268.623 802.52 267.087 798.68 267.087 794.264V788.792C267.087 778.04 270.255 768.152 276.591 759.128L351.183 654.008C357.519 645.176 366.063 640.76 376.815 640.76H391.215C395.631 640.76 399.375 642.392 402.447 645.656C405.711 648.92 407.343 652.76 407.343 657.176V770.072C407.343 771.608 408.207 772.376 409.935 772.376H421.455C425.871 772.376 429.711 774.008 432.975 777.272C436.239 780.536 437.871 784.376 437.871 788.792V794.264C437.871 798.68 436.239 802.52 432.975 805.784C429.711 809.048 425.871 810.68 421.455 810.68H409.935C408.207 810.68 407.343 811.544 407.343 813.272V834.584C407.343 839 405.711 842.84 402.447 846.104C399.375 849.368 395.631 851 391.215 851H376.815C372.399 851 368.559 849.368 365.295 846.104C362.223 842.84 360.687 839 360.687 834.584V813.272C360.687 811.544 359.823 810.68 358.095 810.68H283.215ZM584.288 690.872C578.912 680.312 570.464 675.032 558.944 675.032C547.424 675.032 538.88 680.312 533.312 690.872C527.936 701.432 525.248 719.768 525.248 745.88C525.248 771.992 527.936 790.328 533.312 800.888C538.88 811.448 547.424 816.728 558.944 816.728C570.464 816.728 578.912 811.448 584.288 800.888C589.856 790.328 592.64 771.992 592.64 745.88C592.64 719.768 589.856 701.432 584.288 690.872ZM621.728 828.536C608.096 845.432 587.168 853.88 558.944 853.88C530.72 853.88 509.696 845.432 495.872 828.536C482.24 811.64 475.424 784.088 475.424 745.88C475.424 707.672 482.24 680.12 495.872 663.224C509.696 646.328 530.72 637.88 558.944 637.88C587.168 637.88 608.096 646.328 621.728 663.224C635.552 680.12 642.464 707.672 642.464 745.88C642.464 784.088 635.552 811.64 621.728 828.536ZM713.712 771.8V772.088C713.712 772.28 713.808 772.376 714 772.376H761.52C763.248 772.376 764.112 771.608 764.112 770.072V700.376C764.112 700.184 764.016 700.088 763.824 700.088C763.44 700.088 763.248 700.184 763.248 700.376L713.712 771.8ZM686.64 810.68C682.224 810.68 678.384 809.048 675.12 805.784C672.048 802.52 670.512 798.68 670.512 794.264V788.792C670.512 778.04 673.68 768.152 680.016 759.128L754.608 654.008C760.944 645.176 769.488 640.76 780.24 640.76H794.64C799.056 640.76 802.8 642.392 805.872 645.656C809.136 648.92 810.768 652.76 810.768 657.176V770.072C810.768 771.608 811.632 772.376 813.36 772.376H824.88C829.296 772.376 833.136 774.008 836.4 777.272C839.664 780.536 841.296 784.376 841.296 788.792V794.264C841.296 798.68 839.664 802.52 836.4 805.784C833.136 809.048 829.296 810.68 824.88 810.68H813.36C811.632 810.68 810.768 811.544 810.768 813.272V834.584C810.768 839 809.136 842.84 805.872 846.104C802.8 849.368 799.056 851 794.64 851H780.24C775.824 851 771.984 849.368 768.72 846.104C765.648 842.84 764.112 839 764.112 834.584V813.272C764.112 811.544 763.248 810.68 761.52 810.68H686.64Z" fill="black"/>
</svg>
