<svg width="414" height="746" viewBox="0 0 414 746" fill="none" xmlns="http://www.w3.org/2000/svg">
<rect x="14" y="34" width="387" height="66" fill="#F8F8F8"/>
<rect width="414" height="746" rx="51" fill="#F9F9F9"/>
<path d="M39 67.2H42.2V68H35.8V67.2H38.2V48.16C37.3467 46.9867 36.5467 46.4 35.8 46.4V45.6H43.28L54.52 58.92V46.4H51.32V45.6H58.12V46.4H55.32V68.4H54.52L39 49.16V67.2ZM78.1863 60H66.1063C66.3729 64.6933 68.1996 67.04 71.5863 67.04C72.4929 67.04 73.5196 66.8267 74.6663 66.4C75.8396 65.9733 76.6929 65.3733 77.2263 64.6L77.7863 65C77.1996 65.9867 76.1996 66.8 74.7863 67.44C73.3729 68.08 71.9596 68.4 70.5463 68.4C69.1596 68.4 67.9063 68.2667 66.7863 68C65.6663 67.7067 64.5729 67.2267 63.5063 66.56C62.4396 65.8933 61.5996 64.8933 60.9863 63.56C60.3996 62.2267 60.1063 60.6133 60.1063 58.72C60.1063 55.4933 60.9996 53.1067 62.7863 51.56C64.5729 49.9867 66.7329 49.2 69.2663 49.2C71.8263 49.2 73.9463 50.0533 75.6263 51.76C77.3329 53.4667 78.1863 56.2133 78.1863 60ZM66.0663 59.2H72.5863C72.5863 56.7467 72.3196 54.6 71.7863 52.76C71.2796 50.92 70.4529 50 69.3063 50C68.1596 50 67.3329 50.8933 66.8263 52.68C66.3196 54.44 66.0663 56.4667 66.0663 58.76V59.2ZM86.7722 68H80.0122V67.2H82.4122L88.0522 59.72L81.0922 50.4H79.4922V49.6H90.0122V50.4H88.0122L92.5722 56.52L97.4522 50.4H94.2522V49.6H100.972V50.4H98.5722L93.0522 57.2L100.532 67.2H102.132V68H91.6522V67.2H93.6522L88.6122 60.48L83.5322 67.2H86.7722V68ZM121.819 60H109.739C110.006 64.6933 111.832 67.04 115.219 67.04C116.126 67.04 117.152 66.8267 118.299 66.4C119.472 65.9733 120.326 65.3733 120.859 64.6L121.419 65C120.832 65.9867 119.832 66.8 118.419 67.44C117.006 68.08 115.592 68.4 114.179 68.4C112.792 68.4 111.539 68.2667 110.419 68C109.299 67.7067 108.206 67.2267 107.139 66.56C106.072 65.8933 105.232 64.8933 104.619 63.56C104.032 62.2267 103.739 60.6133 103.739 58.72C103.739 55.4933 104.632 53.1067 106.419 51.56C108.206 49.9867 110.366 49.2 112.899 49.2C115.459 49.2 117.579 50.0533 119.259 51.76C120.966 53.4667 121.819 56.2133 121.819 60ZM109.699 59.2H116.219C116.219 56.7467 115.952 54.6 115.419 52.76C114.912 50.92 114.086 50 112.939 50C111.792 50 110.966 50.8933 110.459 52.68C109.952 54.44 109.699 56.4667 109.699 58.76V59.2ZM134.725 68H124.725V67.2H126.725V50.4H124.725V49.6H132.725V54.36C132.965 53.0533 133.392 51.9867 134.005 51.16C134.645 50.3333 135.338 49.7867 136.085 49.52C136.858 49.2533 137.592 49.12 138.285 49.12C139.005 49.12 139.685 49.2533 140.325 49.52C140.992 49.76 141.485 50.2667 141.805 51.04C142.125 51.7867 142.138 52.5467 141.845 53.32C141.552 54.0667 141.032 54.6 140.285 54.92C139.565 55.24 138.898 55.28 138.285 55.04C137.672 54.8 137.232 54.48 136.965 54.08C136.698 53.6533 136.512 53.2533 136.405 52.88C136.138 51.8933 135.778 51.4 135.325 51.4C134.818 51.4 134.258 52.28 133.645 54.04C133.032 55.7733 132.725 57.6133 132.725 59.56V67.2H134.725V68ZM151.421 50.4V60.16C151.421 62.4533 151.514 63.8533 151.701 64.36C151.888 64.84 152.088 65.2533 152.301 65.6C152.701 66.2933 153.394 66.64 154.381 66.64C155.394 66.64 156.101 66.5067 156.501 66.24V67.04C155.221 67.9467 153.821 68.4 152.301 68.4C150.061 68.4 148.354 67.8667 147.181 66.8C146.008 65.7333 145.421 63.8267 145.421 61.08V50.4H142.461V49.6H145.421C146.701 49.3867 147.834 48.7733 148.821 47.76C149.808 46.72 150.488 45.2933 150.861 43.48H151.421V49.6H156.061V50.4H151.421ZM166.994 72.44C166.274 73.9867 165.514 75.0933 164.714 75.76C163.914 76.4533 162.847 76.8 161.514 76.8C160.181 76.8 159.141 76.5067 158.394 75.92C157.647 75.36 157.274 74.6 157.274 73.64C157.274 72.7067 157.541 71.96 158.074 71.4C158.634 70.84 159.301 70.56 160.074 70.56C160.847 70.56 161.501 70.7067 162.034 71C162.567 71.2933 162.941 71.6133 163.154 71.96C163.741 72.8933 164.287 73.36 164.794 73.36C165.327 73.36 165.794 72.9067 166.194 72L167.874 68.04L158.514 50.4H156.914V49.6H167.674V50.4H165.674L171.034 60.96L175.634 50.4H172.434V49.6H178.994V50.4H176.594L166.994 72.44Z" fill="#26FF03"/>
<path d="M33.9102 160.809L41.1367 138.562H46.5664L36.332 167H31.5469L21.3516 138.562H26.7617L33.9102 160.809ZM54.3789 167H49.6328V145.867H54.3789V167ZM49.3398 140.379C49.3398 139.65 49.5677 139.044 50.0234 138.562C50.4922 138.081 51.1562 137.84 52.0156 137.84C52.875 137.84 53.5391 138.081 54.0078 138.562C54.4766 139.044 54.7109 139.65 54.7109 140.379C54.7109 141.095 54.4766 141.694 54.0078 142.176C53.5391 142.645 52.875 142.879 52.0156 142.879C51.1562 142.879 50.4922 142.645 50.0234 142.176C49.5677 141.694 49.3398 141.095 49.3398 140.379ZM68.8711 167.391C65.8633 167.391 63.4219 166.447 61.5469 164.559C59.6849 162.658 58.7539 160.132 58.7539 156.98V156.395C58.7539 154.285 59.1576 152.404 59.9648 150.75C60.7852 149.083 61.931 147.788 63.4023 146.863C64.8737 145.939 66.5143 145.477 68.3242 145.477C71.2018 145.477 73.4219 146.395 74.9844 148.23C76.5599 150.066 77.3477 152.664 77.3477 156.023V157.938H63.5391C63.6823 159.682 64.2617 161.062 65.2773 162.078C66.306 163.094 67.5951 163.602 69.1445 163.602C71.319 163.602 73.0898 162.723 74.457 160.965L77.0156 163.406C76.1693 164.669 75.0365 165.652 73.6172 166.355C72.2109 167.046 70.6289 167.391 68.8711 167.391ZM68.3047 149.285C67.0026 149.285 65.9479 149.741 65.1406 150.652C64.3464 151.564 63.8385 152.833 63.6172 154.461H72.6602V154.109C72.556 152.521 72.1328 151.323 71.3906 150.516C70.6484 149.695 69.6198 149.285 68.3047 149.285ZM99.6133 160.457L102.973 145.867H107.602L101.84 167H97.9336L93.4023 152.488L88.9492 167H85.043L79.2617 145.867H83.8906L87.3086 160.301L91.6445 145.867H95.2188L99.6133 160.457ZM115.824 167H111.078V145.867H115.824V167ZM110.785 140.379C110.785 139.65 111.013 139.044 111.469 138.562C111.938 138.081 112.602 137.84 113.461 137.84C114.32 137.84 114.984 138.081 115.453 138.562C115.922 139.044 116.156 139.65 116.156 140.379C116.156 141.095 115.922 141.694 115.453 142.176C114.984 142.645 114.32 142.879 113.461 142.879C112.602 142.879 111.938 142.645 111.469 142.176C111.013 141.694 110.785 141.095 110.785 140.379ZM125.414 145.867L125.551 148.309C127.113 146.421 129.164 145.477 131.703 145.477C136.104 145.477 138.344 147.996 138.422 153.035V167H133.676V153.309C133.676 151.967 133.383 150.978 132.797 150.34C132.224 149.689 131.28 149.363 129.965 149.363C128.051 149.363 126.625 150.229 125.688 151.961V167H120.941V145.867H125.414ZM142.445 156.277C142.445 152.996 143.214 150.379 144.75 148.426C146.299 146.46 148.35 145.477 150.902 145.477C153.311 145.477 155.206 146.316 156.586 147.996L156.801 145.867H161.078V166.355C161.078 169.129 160.212 171.316 158.48 172.918C156.762 174.52 154.438 175.32 151.508 175.32C149.958 175.32 148.441 174.995 146.957 174.344C145.486 173.706 144.366 172.866 143.598 171.824L145.844 168.973C147.302 170.704 149.099 171.57 151.234 171.57C152.81 171.57 154.053 171.141 154.965 170.281C155.876 169.435 156.332 168.185 156.332 166.531V165.105C154.965 166.629 153.142 167.391 150.863 167.391C148.389 167.391 146.365 166.408 144.789 164.441C143.227 162.475 142.445 159.754 142.445 156.277ZM147.172 156.688C147.172 158.81 147.602 160.483 148.461 161.707C149.333 162.918 150.538 163.523 152.074 163.523C153.988 163.523 155.408 162.703 156.332 161.062V151.766C155.434 150.164 154.027 149.363 152.113 149.363C150.551 149.363 149.333 149.982 148.461 151.219C147.602 152.456 147.172 154.279 147.172 156.688ZM177.602 167V149.383H174.379V145.867H177.602V143.934C177.602 141.59 178.253 139.78 179.555 138.504C180.857 137.228 182.68 136.59 185.023 136.59C185.857 136.59 186.742 136.707 187.68 136.941L187.562 140.652C187.042 140.548 186.436 140.496 185.746 140.496C183.48 140.496 182.348 141.661 182.348 143.992V145.867H186.645V149.383H182.348V167H177.602ZM198.949 167.391C195.941 167.391 193.5 166.447 191.625 164.559C189.763 162.658 188.832 160.132 188.832 156.98V156.395C188.832 154.285 189.236 152.404 190.043 150.75C190.863 149.083 192.009 147.788 193.48 146.863C194.952 145.939 196.592 145.477 198.402 145.477C201.28 145.477 203.5 146.395 205.062 148.23C206.638 150.066 207.426 152.664 207.426 156.023V157.938H193.617C193.76 159.682 194.34 161.062 195.355 162.078C196.384 163.094 197.673 163.602 199.223 163.602C201.397 163.602 203.168 162.723 204.535 160.965L207.094 163.406C206.247 164.669 205.115 165.652 203.695 166.355C202.289 167.046 200.707 167.391 198.949 167.391ZM198.383 149.285C197.081 149.285 196.026 149.741 195.219 150.652C194.424 151.564 193.917 152.833 193.695 154.461H202.738V154.109C202.634 152.521 202.211 151.323 201.469 150.516C200.727 149.695 199.698 149.285 198.383 149.285ZM220.434 167.391C217.426 167.391 214.984 166.447 213.109 164.559C211.247 162.658 210.316 160.132 210.316 156.98V156.395C210.316 154.285 210.72 152.404 211.527 150.75C212.348 149.083 213.493 147.788 214.965 146.863C216.436 145.939 218.077 145.477 219.887 145.477C222.764 145.477 224.984 146.395 226.547 148.23C228.122 150.066 228.91 152.664 228.91 156.023V157.938H215.102C215.245 159.682 215.824 161.062 216.84 162.078C217.868 163.094 219.158 163.602 220.707 163.602C222.882 163.602 224.652 162.723 226.02 160.965L228.578 163.406C227.732 164.669 226.599 165.652 225.18 166.355C223.773 167.046 222.191 167.391 220.434 167.391ZM219.867 149.285C218.565 149.285 217.51 149.741 216.703 150.652C215.909 151.564 215.401 152.833 215.18 154.461H224.223V154.109C224.118 152.521 223.695 151.323 222.953 150.516C222.211 149.695 221.182 149.285 219.867 149.285ZM231.723 156.277C231.723 153.022 232.478 150.411 233.988 148.445C235.499 146.466 237.523 145.477 240.062 145.477C242.302 145.477 244.112 146.258 245.492 147.82V137H250.238V167H245.941L245.707 164.812C244.288 166.531 242.393 167.391 240.023 167.391C237.549 167.391 235.544 166.395 234.008 164.402C232.484 162.41 231.723 159.702 231.723 156.277ZM236.469 156.688C236.469 158.836 236.879 160.516 237.699 161.727C238.533 162.924 239.711 163.523 241.234 163.523C243.174 163.523 244.594 162.658 245.492 160.926V151.902C244.62 150.21 243.214 149.363 241.273 149.363C239.737 149.363 238.552 149.975 237.719 151.199C236.885 152.41 236.469 154.24 236.469 156.688ZM273.734 156.648C273.734 159.93 272.999 162.54 271.527 164.48C270.069 166.421 268.057 167.391 265.492 167.391C263.018 167.391 261.091 166.499 259.711 164.715L259.477 167H255.18V137H259.926V147.898C261.293 146.284 263.135 145.477 265.453 145.477C268.031 145.477 270.056 146.434 271.527 148.348C272.999 150.262 273.734 152.938 273.734 156.375V156.648ZM268.988 156.238C268.988 153.947 268.585 152.228 267.777 151.082C266.97 149.936 265.798 149.363 264.262 149.363C262.204 149.363 260.759 150.262 259.926 152.059V160.77C260.772 162.605 262.23 163.523 264.301 163.523C265.785 163.523 266.931 162.97 267.738 161.863C268.546 160.757 268.962 159.083 268.988 156.844V156.238ZM290.355 167C290.147 166.596 289.965 165.939 289.809 165.027C288.298 166.603 286.449 167.391 284.262 167.391C282.139 167.391 280.408 166.785 279.066 165.574C277.725 164.363 277.055 162.866 277.055 161.082C277.055 158.829 277.888 157.104 279.555 155.906C281.234 154.695 283.63 154.09 286.742 154.09H289.652V152.703C289.652 151.609 289.346 150.737 288.734 150.086C288.122 149.422 287.191 149.09 285.941 149.09C284.861 149.09 283.975 149.363 283.285 149.91C282.595 150.444 282.25 151.128 282.25 151.961H277.504C277.504 150.802 277.888 149.721 278.656 148.719C279.424 147.703 280.466 146.909 281.781 146.336C283.109 145.763 284.587 145.477 286.215 145.477C288.689 145.477 290.661 146.102 292.133 147.352C293.604 148.589 294.359 150.333 294.398 152.586V162.117C294.398 164.018 294.665 165.535 295.199 166.668V167H290.355ZM285.141 163.582C286.078 163.582 286.957 163.354 287.777 162.898C288.611 162.443 289.236 161.831 289.652 161.062V157.078H287.094C285.336 157.078 284.014 157.384 283.129 157.996C282.243 158.608 281.801 159.474 281.801 160.594C281.801 161.505 282.1 162.234 282.699 162.781C283.311 163.315 284.125 163.582 285.141 163.582ZM308.051 163.602C309.236 163.602 310.219 163.257 311 162.566C311.781 161.876 312.198 161.023 312.25 160.008H316.723C316.671 161.323 316.26 162.553 315.492 163.699C314.724 164.832 313.682 165.73 312.367 166.395C311.052 167.059 309.633 167.391 308.109 167.391C305.154 167.391 302.81 166.434 301.078 164.52C299.346 162.605 298.48 159.962 298.48 156.59V156.102C298.48 152.885 299.34 150.314 301.059 148.387C302.777 146.447 305.121 145.477 308.09 145.477C310.603 145.477 312.647 146.212 314.223 147.684C315.811 149.142 316.645 151.062 316.723 153.445H312.25C312.198 152.234 311.781 151.238 311 150.457C310.232 149.676 309.249 149.285 308.051 149.285C306.514 149.285 305.329 149.845 304.496 150.965C303.663 152.072 303.24 153.758 303.227 156.023V156.785C303.227 159.077 303.637 160.789 304.457 161.922C305.29 163.042 306.488 163.602 308.051 163.602ZM327.172 157.938L325.062 160.105V167H320.316V137H325.062V154.305L326.547 152.449L332.387 145.867H338.09L330.238 154.676L338.93 167H333.441L327.172 157.938Z" fill="#34738E"/>
<path d="M53.5 204C57.901 204 62.1086 204.924 66.1228 206.773C70.1369 208.622 73.5949 211.109 76.4967 214.234C79.3984 217.359 81.7078 221.083 83.4247 225.406C85.1416 229.729 86 234.26 86 239C86 243.714 85.1476 248.232 83.4428 252.555C81.738 256.878 79.4347 260.602 76.5329 263.727C73.6311 266.852 70.1732 269.345 66.159 271.207C62.1449 273.069 57.9252 274 53.5 274C49.0748 274 44.8551 273.076 40.841 271.227C36.8268 269.378 33.3749 266.884 30.4852 263.746C27.5955 260.608 25.2922 256.884 23.5753 252.574C21.8584 248.264 21 243.74 21 239C21 234.26 21.8584 229.729 23.5753 225.406C25.2922 221.083 27.6016 217.359 30.5033 214.234C33.4051 211.109 36.8631 208.622 40.8772 206.773C44.8914 204.924 49.099 204 53.5 204ZM75.9526 256.773C79.5556 251.435 81.3571 245.51 81.3571 239C81.3571 234.938 80.6196 231.057 79.1445 227.359C77.6695 223.661 75.6866 220.471 73.1959 217.789C70.7052 215.107 67.7429 212.971 64.3092 211.383C60.8754 209.794 57.2723 209 53.5 209C49.7277 209 46.1246 209.794 42.6908 211.383C39.2571 212.971 36.2948 215.107 33.8041 217.789C31.3134 220.471 29.3305 223.661 27.8555 227.359C26.3804 231.057 25.6429 234.938 25.6429 239C25.6429 245.51 27.4444 251.435 31.0474 256.773C32.6434 248.258 36.3432 244 42.1468 244C45.3145 247.333 49.099 249 53.5 249C57.901 249 61.6855 247.333 64.8532 244C70.6568 244 74.3566 248.258 75.9526 256.773ZM67.4286 231.5C67.4286 227.359 66.0684 223.824 63.3479 220.895C60.6275 217.965 57.3449 216.5 53.5 216.5C49.6551 216.5 46.3725 217.965 43.6521 220.895C40.9316 223.824 39.5714 227.359 39.5714 231.5C39.5714 235.641 40.9316 239.176 43.6521 242.105C46.3725 245.035 49.6551 246.5 53.5 246.5C57.3449 246.5 60.6275 245.035 63.3479 242.105C66.0684 239.176 67.4286 235.641 67.4286 231.5Z" fill="#39809E"/>
<path d="M53.5 501C57.901 501 62.1086 501.924 66.1228 503.773C70.1369 505.622 73.5949 508.109 76.4967 511.234C79.3984 514.359 81.7078 518.083 83.4247 522.406C85.1416 526.729 86 531.26 86 536C86 540.714 85.1476 545.232 83.4428 549.555C81.738 553.878 79.4347 557.602 76.5329 560.727C73.6311 563.852 70.1732 566.345 66.159 568.207C62.1449 570.069 57.9252 571 53.5 571C49.0748 571 44.8551 570.076 40.841 568.227C36.8268 566.378 33.3749 563.884 30.4852 560.746C27.5955 557.608 25.2922 553.884 23.5753 549.574C21.8584 545.264 21 540.74 21 536C21 531.26 21.8584 526.729 23.5753 522.406C25.2922 518.083 27.6016 514.359 30.5033 511.234C33.4051 508.109 36.8631 505.622 40.8772 503.773C44.8914 501.924 49.099 501 53.5 501ZM75.9526 553.773C79.5556 548.435 81.3571 542.51 81.3571 536C81.3571 531.938 80.6196 528.057 79.1445 524.359C77.6695 520.661 75.6866 517.471 73.1959 514.789C70.7052 512.107 67.7429 509.971 64.3092 508.383C60.8754 506.794 57.2723 506 53.5 506C49.7277 506 46.1246 506.794 42.6908 508.383C39.2571 509.971 36.2948 512.107 33.8041 514.789C31.3134 517.471 29.3305 520.661 27.8555 524.359C26.3804 528.057 25.6429 531.938 25.6429 536C25.6429 542.51 27.4444 548.435 31.0474 553.773C32.6434 545.258 36.3432 541 42.1468 541C45.3145 544.333 49.099 546 53.5 546C57.901 546 61.6855 544.333 64.8532 541C70.6568 541 74.3566 545.258 75.9526 553.773ZM67.4286 528.5C67.4286 524.359 66.0684 520.824 63.3479 517.895C60.6275 514.965 57.3449 513.5 53.5 513.5C49.6551 513.5 46.3725 514.965 43.6521 517.895C40.9316 520.824 39.5714 524.359 39.5714 528.5C39.5714 532.641 40.9316 536.176 43.6521 539.105C46.3725 542.035 49.6551 543.5 53.5 543.5C57.3449 543.5 60.6275 542.035 63.3479 539.105C66.0684 536.176 67.4286 532.641 67.4286 528.5Z" fill="#39809E"/>
<path d="M111.629 224.07H114.213V234.54C114.213 235.968 113.765 237.103 112.87 237.944C111.981 238.785 110.805 239.205 109.342 239.205C107.784 239.205 106.581 238.812 105.733 238.026C104.885 237.24 104.461 236.146 104.461 234.745H107.045C107.045 235.538 107.24 236.136 107.63 236.539C108.026 236.936 108.597 237.134 109.342 237.134C110.04 237.134 110.593 236.905 111.003 236.447C111.42 235.982 111.629 235.343 111.629 234.529V224.07ZM116.479 233.35C116.479 232.263 116.694 231.286 117.125 230.417C117.556 229.542 118.161 228.873 118.94 228.408C119.719 227.936 120.615 227.7 121.626 227.7C123.124 227.7 124.337 228.182 125.267 229.146C126.203 230.11 126.709 231.388 126.784 232.981L126.794 233.565C126.794 234.659 126.583 235.637 126.159 236.498C125.742 237.359 125.14 238.026 124.354 238.498C123.575 238.969 122.672 239.205 121.647 239.205C120.082 239.205 118.827 238.686 117.884 237.646C116.947 236.601 116.479 235.209 116.479 233.473V233.35ZM118.971 233.565C118.971 234.707 119.207 235.603 119.678 236.252C120.15 236.895 120.806 237.216 121.647 237.216C122.488 237.216 123.141 236.888 123.605 236.231C124.077 235.575 124.313 234.615 124.313 233.35C124.313 232.229 124.07 231.34 123.585 230.684C123.106 230.028 122.454 229.7 121.626 229.7C120.813 229.7 120.167 230.024 119.688 230.674C119.21 231.316 118.971 232.28 118.971 233.565ZM131.357 229.115C132.171 228.172 133.2 227.7 134.444 227.7C136.809 227.7 138.009 229.05 138.043 231.75V239H135.551V231.843C135.551 231.077 135.384 230.537 135.049 230.223C134.721 229.901 134.235 229.741 133.593 229.741C132.595 229.741 131.85 230.185 131.357 231.074V239H128.866V223.25H131.357V229.115ZM142.883 227.905L142.955 229.187C143.775 228.196 144.852 227.7 146.185 227.7C148.495 227.7 149.671 229.023 149.712 231.668V239H147.22V231.812C147.22 231.108 147.066 230.588 146.759 230.253C146.458 229.912 145.962 229.741 145.272 229.741C144.267 229.741 143.519 230.195 143.026 231.104V239H140.535V227.905H142.883ZM157.73 239V224.07H162.14C163.459 224.07 164.628 224.364 165.646 224.952C166.672 225.54 167.465 226.374 168.025 227.454C168.586 228.534 168.866 229.771 168.866 231.166V231.915C168.866 233.33 168.583 234.574 168.015 235.647C167.455 236.72 166.651 237.547 165.605 238.128C164.566 238.709 163.374 239 162.027 239H157.73ZM160.325 226.162V236.929H162.017C163.377 236.929 164.419 236.505 165.144 235.657C165.875 234.803 166.248 233.579 166.262 231.986V231.156C166.262 229.536 165.91 228.298 165.206 227.444C164.501 226.589 163.479 226.162 162.14 226.162H160.325Z" fill="#39809E"/>
<path d="M111.629 521.07H114.213V531.54C114.213 532.968 113.765 534.103 112.87 534.944C111.981 535.785 110.805 536.205 109.342 536.205C107.784 536.205 106.581 535.812 105.733 535.026C104.885 534.24 104.461 533.146 104.461 531.745H107.045C107.045 532.538 107.24 533.136 107.63 533.539C108.026 533.936 108.597 534.134 109.342 534.134C110.04 534.134 110.593 533.905 111.003 533.447C111.42 532.982 111.629 532.343 111.629 531.529V521.07ZM123.667 534.913C122.936 535.774 121.896 536.205 120.55 536.205C119.347 536.205 118.434 535.853 117.812 535.149C117.197 534.445 116.889 533.426 116.889 532.093V524.905H119.381V532.062C119.381 533.471 119.965 534.175 121.134 534.175C122.344 534.175 123.161 533.741 123.585 532.873V524.905H126.077V536H123.729L123.667 534.913ZM131.265 536H128.773V520.25H131.265V536ZM136.638 536H134.146V524.905H136.638V536ZM133.993 522.024C133.993 521.641 134.112 521.323 134.352 521.07C134.598 520.817 134.946 520.691 135.397 520.691C135.849 520.691 136.197 520.817 136.443 521.07C136.689 521.323 136.812 521.641 136.812 522.024C136.812 522.4 136.689 522.714 136.443 522.967C136.197 523.213 135.849 523.336 135.397 523.336C134.946 523.336 134.598 523.213 134.352 522.967C134.112 522.714 133.993 522.4 133.993 522.024ZM145.99 536C145.88 535.788 145.785 535.443 145.703 534.964C144.91 535.792 143.939 536.205 142.791 536.205C141.676 536.205 140.767 535.887 140.063 535.251C139.359 534.616 139.007 533.83 139.007 532.893C139.007 531.71 139.444 530.805 140.319 530.176C141.201 529.54 142.459 529.222 144.093 529.222H145.621V528.494C145.621 527.92 145.46 527.462 145.139 527.12C144.817 526.771 144.329 526.597 143.672 526.597C143.105 526.597 142.64 526.741 142.278 527.028C141.916 527.308 141.734 527.667 141.734 528.104H139.243C139.243 527.496 139.444 526.929 139.848 526.402C140.251 525.869 140.798 525.452 141.488 525.151C142.186 524.851 142.961 524.7 143.816 524.7C145.115 524.7 146.15 525.028 146.923 525.685C147.695 526.334 148.092 527.25 148.112 528.433V533.437C148.112 534.435 148.252 535.231 148.533 535.826V536H145.99ZM143.252 534.206C143.744 534.206 144.206 534.086 144.636 533.847C145.074 533.607 145.402 533.286 145.621 532.883V530.791H144.277C143.354 530.791 142.661 530.952 142.196 531.273C141.731 531.594 141.499 532.049 141.499 532.637C141.499 533.115 141.656 533.498 141.97 533.785C142.292 534.065 142.719 534.206 143.252 534.206ZM161.678 530.248H158.787V536H156.192V521.07H161.442C163.165 521.07 164.495 521.457 165.431 522.229C166.368 523.001 166.836 524.119 166.836 525.582C166.836 526.58 166.593 527.417 166.108 528.094C165.629 528.764 164.959 529.28 164.098 529.643L167.451 535.867V536H164.672L161.678 530.248ZM158.787 528.166H161.453C162.328 528.166 163.011 527.947 163.503 527.51C163.996 527.065 164.242 526.46 164.242 525.695C164.242 524.895 164.013 524.276 163.555 523.839C163.104 523.401 162.427 523.176 161.524 523.162H158.787V528.166Z" fill="#39809E"/>
<path d="M109.476 254.268L112.42 248.203H114.881L110.592 256.289V261H108.359V256.289L104.062 248.203H106.531L109.476 254.268ZM119.671 261.176C118.317 261.176 117.219 260.751 116.375 259.901C115.537 259.046 115.118 257.909 115.118 256.491V256.228C115.118 255.278 115.3 254.432 115.663 253.688C116.032 252.938 116.548 252.354 117.21 251.938C117.872 251.522 118.61 251.314 119.425 251.314C120.72 251.314 121.719 251.728 122.422 252.554C123.131 253.38 123.485 254.549 123.485 256.061V256.922H117.271C117.336 257.707 117.597 258.328 118.054 258.785C118.517 259.242 119.097 259.471 119.794 259.471C120.772 259.471 121.569 259.075 122.185 258.284L123.336 259.383C122.955 259.951 122.445 260.394 121.807 260.71C121.174 261.021 120.462 261.176 119.671 261.176ZM119.416 253.028C118.83 253.028 118.355 253.233 117.992 253.644C117.635 254.054 117.406 254.625 117.307 255.357H121.376V255.199C121.329 254.484 121.139 253.945 120.805 253.582C120.471 253.213 120.008 253.028 119.416 253.028ZM130.481 258.416C130.481 258.035 130.323 257.745 130.007 257.546C129.696 257.347 129.178 257.171 128.451 257.019C127.725 256.866 127.118 256.673 126.632 256.438C125.565 255.923 125.032 255.176 125.032 254.197C125.032 253.377 125.378 252.691 126.069 252.141C126.761 251.59 127.64 251.314 128.706 251.314C129.843 251.314 130.76 251.596 131.457 252.158C132.16 252.721 132.512 253.45 132.512 254.347H130.376C130.376 253.937 130.224 253.597 129.919 253.327C129.614 253.052 129.21 252.914 128.706 252.914C128.237 252.914 127.854 253.022 127.555 253.239C127.262 253.456 127.115 253.746 127.115 254.109C127.115 254.438 127.253 254.692 127.528 254.874C127.804 255.056 128.36 255.24 129.198 255.428C130.036 255.609 130.692 255.829 131.167 256.087C131.647 256.339 132.002 256.644 132.23 257.001C132.465 257.358 132.582 257.792 132.582 258.302C132.582 259.157 132.228 259.852 131.519 260.385C130.81 260.912 129.881 261.176 128.732 261.176C127.953 261.176 127.259 261.035 126.649 260.754C126.04 260.473 125.565 260.086 125.226 259.594C124.886 259.102 124.716 258.571 124.716 258.003H126.79C126.819 258.507 127.01 258.896 127.361 259.172C127.713 259.441 128.179 259.576 128.759 259.576C129.321 259.576 129.749 259.471 130.042 259.26C130.335 259.043 130.481 258.762 130.481 258.416ZM137.126 249.179V251.49H138.805V253.072H137.126V258.381C137.126 258.744 137.196 259.008 137.337 259.172C137.483 259.33 137.741 259.409 138.11 259.409C138.356 259.409 138.605 259.38 138.857 259.321V260.974C138.371 261.108 137.902 261.176 137.451 261.176C135.811 261.176 134.99 260.271 134.99 258.46V253.072H133.426V251.49H134.99V249.179H137.126ZM144.632 261.176C143.278 261.176 142.18 260.751 141.336 259.901C140.498 259.046 140.079 257.909 140.079 256.491V256.228C140.079 255.278 140.261 254.432 140.624 253.688C140.993 252.938 141.509 252.354 142.171 251.938C142.833 251.522 143.571 251.314 144.386 251.314C145.681 251.314 146.68 251.728 147.383 252.554C148.092 253.38 148.446 254.549 148.446 256.061V256.922H142.232C142.297 257.707 142.558 258.328 143.015 258.785C143.478 259.242 144.058 259.471 144.755 259.471C145.733 259.471 146.53 259.075 147.146 258.284L148.297 259.383C147.916 259.951 147.406 260.394 146.768 260.71C146.135 261.021 145.423 261.176 144.632 261.176ZM144.377 253.028C143.791 253.028 143.316 253.233 142.953 253.644C142.596 254.054 142.367 254.625 142.268 255.357H146.337V255.199C146.29 254.484 146.1 253.945 145.766 253.582C145.432 253.213 144.969 253.028 144.377 253.028ZM155.091 253.441C154.81 253.395 154.52 253.371 154.221 253.371C153.242 253.371 152.583 253.746 152.243 254.496V261H150.107V251.49H152.146L152.199 252.554C152.715 251.728 153.43 251.314 154.344 251.314C154.648 251.314 154.9 251.355 155.1 251.438L155.091 253.441ZM155.864 256.175C155.864 254.71 156.204 253.535 156.884 252.65C157.563 251.76 158.475 251.314 159.617 251.314C160.625 251.314 161.439 251.666 162.061 252.369V247.5H164.196V261H162.263L162.157 260.016C161.519 260.789 160.666 261.176 159.6 261.176C158.486 261.176 157.584 260.728 156.893 259.831C156.207 258.935 155.864 257.716 155.864 256.175ZM158 256.359C158 257.326 158.185 258.082 158.554 258.627C158.929 259.166 159.459 259.436 160.145 259.436C161.018 259.436 161.656 259.046 162.061 258.267V254.206C161.668 253.444 161.035 253.063 160.162 253.063C159.471 253.063 158.938 253.339 158.562 253.89C158.188 254.435 158 255.258 158 256.359ZM172.106 261C172.013 260.818 171.931 260.522 171.86 260.112C171.181 260.821 170.349 261.176 169.364 261.176C168.409 261.176 167.63 260.903 167.026 260.358C166.423 259.813 166.121 259.14 166.121 258.337C166.121 257.323 166.496 256.547 167.246 256.008C168.002 255.463 169.08 255.19 170.48 255.19H171.79V254.566C171.79 254.074 171.652 253.682 171.377 253.389C171.102 253.09 170.683 252.94 170.12 252.94C169.634 252.94 169.235 253.063 168.925 253.31C168.614 253.55 168.459 253.857 168.459 254.232H166.323C166.323 253.711 166.496 253.225 166.842 252.773C167.188 252.316 167.656 251.959 168.248 251.701C168.846 251.443 169.511 251.314 170.243 251.314C171.356 251.314 172.244 251.596 172.906 252.158C173.568 252.715 173.908 253.5 173.926 254.514V258.803C173.926 259.658 174.046 260.341 174.286 260.851V261H172.106ZM169.76 259.462C170.182 259.462 170.577 259.359 170.946 259.154C171.321 258.949 171.603 258.674 171.79 258.328V256.535H170.639C169.848 256.535 169.253 256.673 168.854 256.948C168.456 257.224 168.257 257.613 168.257 258.117C168.257 258.527 168.392 258.855 168.661 259.102C168.937 259.342 169.303 259.462 169.76 259.462ZM179.349 257.941L181.282 251.49H183.559L179.779 262.441C179.199 264.041 178.215 264.841 176.826 264.841C176.516 264.841 176.173 264.788 175.798 264.683V263.03L176.202 263.057C176.741 263.057 177.146 262.957 177.415 262.758C177.69 262.564 177.907 262.236 178.065 261.773L178.373 260.956L175.033 251.49H177.336L179.349 257.941Z" fill="#39809E"/>
<path d="M109.476 551.268L112.42 545.203H114.881L110.592 553.289V558H108.359V553.289L104.062 545.203H106.531L109.476 551.268ZM119.671 558.176C118.317 558.176 117.219 557.751 116.375 556.901C115.537 556.046 115.118 554.909 115.118 553.491V553.228C115.118 552.278 115.3 551.432 115.663 550.688C116.032 549.938 116.548 549.354 117.21 548.938C117.872 548.522 118.61 548.314 119.425 548.314C120.72 548.314 121.719 548.728 122.422 549.554C123.131 550.38 123.485 551.549 123.485 553.061V553.922H117.271C117.336 554.707 117.597 555.328 118.054 555.785C118.517 556.242 119.097 556.471 119.794 556.471C120.772 556.471 121.569 556.075 122.185 555.284L123.336 556.383C122.955 556.951 122.445 557.394 121.807 557.71C121.174 558.021 120.462 558.176 119.671 558.176ZM119.416 550.028C118.83 550.028 118.355 550.233 117.992 550.644C117.635 551.054 117.406 551.625 117.307 552.357H121.376V552.199C121.329 551.484 121.139 550.945 120.805 550.582C120.471 550.213 120.008 550.028 119.416 550.028ZM130.481 555.416C130.481 555.035 130.323 554.745 130.007 554.546C129.696 554.347 129.178 554.171 128.451 554.019C127.725 553.866 127.118 553.673 126.632 553.438C125.565 552.923 125.032 552.176 125.032 551.197C125.032 550.377 125.378 549.691 126.069 549.141C126.761 548.59 127.64 548.314 128.706 548.314C129.843 548.314 130.76 548.596 131.457 549.158C132.16 549.721 132.512 550.45 132.512 551.347H130.376C130.376 550.937 130.224 550.597 129.919 550.327C129.614 550.052 129.21 549.914 128.706 549.914C128.237 549.914 127.854 550.022 127.555 550.239C127.262 550.456 127.115 550.746 127.115 551.109C127.115 551.438 127.253 551.692 127.528 551.874C127.804 552.056 128.36 552.24 129.198 552.428C130.036 552.609 130.692 552.829 131.167 553.087C131.647 553.339 132.002 553.644 132.23 554.001C132.465 554.358 132.582 554.792 132.582 555.302C132.582 556.157 132.228 556.852 131.519 557.385C130.81 557.912 129.881 558.176 128.732 558.176C127.953 558.176 127.259 558.035 126.649 557.754C126.04 557.473 125.565 557.086 125.226 556.594C124.886 556.102 124.716 555.571 124.716 555.003H126.79C126.819 555.507 127.01 555.896 127.361 556.172C127.713 556.441 128.179 556.576 128.759 556.576C129.321 556.576 129.749 556.471 130.042 556.26C130.335 556.043 130.481 555.762 130.481 555.416ZM137.126 546.179V548.49H138.805V550.072H137.126V555.381C137.126 555.744 137.196 556.008 137.337 556.172C137.483 556.33 137.741 556.409 138.11 556.409C138.356 556.409 138.605 556.38 138.857 556.321V557.974C138.371 558.108 137.902 558.176 137.451 558.176C135.811 558.176 134.99 557.271 134.99 555.46V550.072H133.426V548.49H134.99V546.179H137.126ZM144.632 558.176C143.278 558.176 142.18 557.751 141.336 556.901C140.498 556.046 140.079 554.909 140.079 553.491V553.228C140.079 552.278 140.261 551.432 140.624 550.688C140.993 549.938 141.509 549.354 142.171 548.938C142.833 548.522 143.571 548.314 144.386 548.314C145.681 548.314 146.68 548.728 147.383 549.554C148.092 550.38 148.446 551.549 148.446 553.061V553.922H142.232C142.297 554.707 142.558 555.328 143.015 555.785C143.478 556.242 144.058 556.471 144.755 556.471C145.733 556.471 146.53 556.075 147.146 555.284L148.297 556.383C147.916 556.951 147.406 557.394 146.768 557.71C146.135 558.021 145.423 558.176 144.632 558.176ZM144.377 550.028C143.791 550.028 143.316 550.233 142.953 550.644C142.596 551.054 142.367 551.625 142.268 552.357H146.337V552.199C146.29 551.484 146.1 550.945 145.766 550.582C145.432 550.213 144.969 550.028 144.377 550.028ZM155.091 550.441C154.81 550.395 154.52 550.371 154.221 550.371C153.242 550.371 152.583 550.746 152.243 551.496V558H150.107V548.49H152.146L152.199 549.554C152.715 548.728 153.43 548.314 154.344 548.314C154.648 548.314 154.9 548.355 155.1 548.438L155.091 550.441ZM155.864 553.175C155.864 551.71 156.204 550.535 156.884 549.65C157.563 548.76 158.475 548.314 159.617 548.314C160.625 548.314 161.439 548.666 162.061 549.369V544.5H164.196V558H162.263L162.157 557.016C161.519 557.789 160.666 558.176 159.6 558.176C158.486 558.176 157.584 557.728 156.893 556.831C156.207 555.935 155.864 554.716 155.864 553.175ZM158 553.359C158 554.326 158.185 555.082 158.554 555.627C158.929 556.166 159.459 556.436 160.145 556.436C161.018 556.436 161.656 556.046 162.061 555.267V551.206C161.668 550.444 161.035 550.063 160.162 550.063C159.471 550.063 158.938 550.339 158.562 550.89C158.188 551.435 158 552.258 158 553.359ZM172.106 558C172.013 557.818 171.931 557.522 171.86 557.112C171.181 557.821 170.349 558.176 169.364 558.176C168.409 558.176 167.63 557.903 167.026 557.358C166.423 556.813 166.121 556.14 166.121 555.337C166.121 554.323 166.496 553.547 167.246 553.008C168.002 552.463 169.08 552.19 170.48 552.19H171.79V551.566C171.79 551.074 171.652 550.682 171.377 550.389C171.102 550.09 170.683 549.94 170.12 549.94C169.634 549.94 169.235 550.063 168.925 550.31C168.614 550.55 168.459 550.857 168.459 551.232H166.323C166.323 550.711 166.496 550.225 166.842 549.773C167.188 549.316 167.656 548.959 168.248 548.701C168.846 548.443 169.511 548.314 170.243 548.314C171.356 548.314 172.244 548.596 172.906 549.158C173.568 549.715 173.908 550.5 173.926 551.514V555.803C173.926 556.658 174.046 557.341 174.286 557.851V558H172.106ZM169.76 556.462C170.182 556.462 170.577 556.359 170.946 556.154C171.321 555.949 171.603 555.674 171.79 555.328V553.535H170.639C169.848 553.535 169.253 553.673 168.854 553.948C168.456 554.224 168.257 554.613 168.257 555.117C168.257 555.527 168.392 555.855 168.661 556.102C168.937 556.342 169.303 556.462 169.76 556.462ZM179.349 554.941L181.282 548.49H183.559L179.779 559.441C179.199 561.041 178.215 561.841 176.826 561.841C176.516 561.841 176.173 561.788 175.798 561.683V560.03L176.202 560.057C176.741 560.057 177.146 559.957 177.415 559.758C177.69 559.564 177.907 559.236 178.065 558.773L178.373 557.956L175.033 548.49H177.336L179.349 554.941Z" fill="#39809E"/>
<rect x="33" y="316" width="349" height="18" fill="#EDEDED"/>
<rect x="33" y="609" width="349" height="18" fill="#EDEDED"/>
<rect x="33" y="344" width="285" height="18" fill="#EDEDED"/>
<rect x="34" y="644" width="285" height="18" fill="#EDEDED"/>
<rect x="33" y="372" width="325" height="18" fill="#EDEDED"/>
<rect x="33" y="400" width="349" height="18" fill="#EDEDED"/>
<rect x="33" y="428" width="137" height="18" fill="#EDEDED"/>
<path d="M353 65H383M353 74.3333H383H353ZM353 55.6667H383H353Z" stroke="#39809E" stroke-width="2"/>
</svg>
