<svg width="60" height="50" viewBox="0 0 60 50" fill="none" xmlns="http://www.w3.org/2000/svg">
<path d="M7.5 3.26949C6.50544 3.26949 5.55161 3.61396 4.84835 4.2271C4.14509 4.84025 3.75 5.67186 3.75 6.53898V32.6949C3.75 33.562 4.14509 34.3937 4.84835 35.0068C5.55161 35.62 6.50544 35.9644 7.5 35.9644H43.4475C45.4365 35.9648 47.3438 36.654 48.75 37.8803L56.25 44.4193V6.53898C56.25 5.67186 55.8549 4.84025 55.1516 4.2271C54.4484 3.61396 53.4946 3.26949 52.5 3.26949H7.5ZM52.5 0C54.4891 0 56.3968 0.688927 57.8033 1.91522C59.2098 3.14152 60 4.80474 60 6.53898V48.3656C59.9999 48.6891 59.8898 49.0052 59.6835 49.2741C59.4772 49.543 59.1841 49.7525 58.8413 49.876C58.4984 49.9996 58.1212 50.0317 57.7574 49.9683C57.3936 49.9048 57.0595 49.7487 56.7975 49.5197L46.0988 40.1919C45.3957 39.5787 44.442 39.2341 43.4475 39.2339H7.5C5.51088 39.2339 3.60322 38.545 2.1967 37.3187C0.790176 36.0924 0 34.4292 0 32.6949V6.53898C0 4.80474 0.790176 3.14152 2.1967 1.91522C3.60322 0.688927 5.51088 0 7.5 0L52.5 0Z" fill="#8F8D8D"/>
<path d="M18.75 19.617C18.75 20.4841 18.3549 21.3158 17.6516 21.9289C16.9484 22.5421 15.9946 22.8865 15 22.8865C14.0054 22.8865 13.0516 22.5421 12.3483 21.9289C11.6451 21.3158 11.25 20.4841 11.25 19.617C11.25 18.7499 11.6451 17.9183 12.3483 17.3051C13.0516 16.692 14.0054 16.3475 15 16.3475C15.9946 16.3475 16.9484 16.692 17.6516 17.3051C18.3549 17.9183 18.75 18.7499 18.75 19.617V19.617ZM33.75 19.617C33.75 20.4841 33.3549 21.3158 32.6516 21.9289C31.9484 22.5421 30.9946 22.8865 30 22.8865C29.0054 22.8865 28.0516 22.5421 27.3484 21.9289C26.6451 21.3158 26.25 20.4841 26.25 19.617C26.25 18.7499 26.6451 17.9183 27.3484 17.3051C28.0516 16.692 29.0054 16.3475 30 16.3475C30.9946 16.3475 31.9484 16.692 32.6516 17.3051C33.3549 17.9183 33.75 18.7499 33.75 19.617ZM48.75 19.617C48.75 20.4841 48.3549 21.3158 47.6516 21.9289C46.9484 22.5421 45.9946 22.8865 45 22.8865C44.0054 22.8865 43.0516 22.5421 42.3484 21.9289C41.6451 21.3158 41.25 20.4841 41.25 19.617C41.25 18.7499 41.6451 17.9183 42.3484 17.3051C43.0516 16.692 44.0054 16.3475 45 16.3475C45.9946 16.3475 46.9484 16.692 47.6516 17.3051C48.3549 17.9183 48.75 18.7499 48.75 19.617Z" fill="#8F8D8D"/>
</svg>
