<svg width="16" height="16" viewBox="0 0 16 16" fill="none" xmlns="http://www.w3.org/2000/svg">
<path d="M15.8165 15.1548L12.3376 11.6759C13.5404 10.3014 14.162 8.51322 14.0709 6.68901C13.9799 4.8648 13.1835 3.14737 11.8498 1.89944C10.5161 0.651502 8.74964 -0.0292449 6.92341 0.000964085C5.09718 0.0311731 3.35418 0.769973 2.06251 2.06134C0.770842 3.3527 0.0316312 5.09553 0.000991756 6.92175C-0.0296477 8.74797 0.650683 10.5146 1.8983 11.8486C3.14593 13.1825 4.86316 13.9794 6.68735 14.0709C8.51154 14.1623 10.2999 13.5412 11.6746 12.3387L15.1537 15.8178C15.2419 15.9045 15.3607 15.9529 15.4844 15.9523C15.608 15.9518 15.7265 15.9025 15.8139 15.815C15.9013 15.7276 15.9507 15.6091 15.9512 15.4854C15.9517 15.3618 15.9033 15.2429 15.8165 15.1548ZM0.954337 7.04871C0.954337 5.84348 1.31173 4.66532 1.98132 3.6632C2.65091 2.66109 3.60262 1.88004 4.71611 1.41882C5.8296 0.957599 7.05485 0.836922 8.23692 1.07205C9.41899 1.30718 10.5048 1.88755 11.357 2.73978C12.2092 3.59201 12.7896 4.67781 13.0247 5.85988C13.2599 7.04195 13.1392 8.2672 12.678 9.38069C12.2168 10.4942 11.4357 11.4459 10.4336 12.1155C9.43148 12.7851 8.25332 13.1425 7.04809 13.1425C5.43248 13.1406 3.88357 12.498 2.74117 11.3556C1.59876 10.2132 0.956157 8.66432 0.954337 7.04871V7.04871Z" fill="#444444"/>
</svg>
