<svg width="72" height="72" viewBox="0 0 72 72" fill="none" xmlns="http://www.w3.org/2000/svg">
<g filter="url(#filter0_d)">
<path d="M67.2661 60.6192L53.3505 46.7036C58.1617 41.2056 60.6479 34.0529 60.2838 26.756C59.9197 19.4592 56.7339 12.5895 51.3992 7.59775C46.0645 2.60601 38.9986 -0.11698 31.6936 0.00385634C24.3887 0.124692 17.4167 3.07989 12.25 8.24535C7.08337 13.4108 4.12652 20.3821 4.00397 27.687C3.88141 34.9919 6.60273 42.0585 11.5932 47.3943C16.5837 52.7302 23.4527 55.9176 30.7494 56.2834C38.0462 56.6492 45.1995 54.1648 50.6986 49.3548L64.6148 63.2711C64.9675 63.618 65.4429 63.8114 65.9375 63.8093C66.4322 63.8073 66.9059 63.6098 67.2557 63.26C67.6054 62.9102 67.8027 62.4364 67.8047 61.9418C67.8066 61.4471 67.613 60.9718 67.2661 60.6192ZM7.81735 28.1948C7.81735 23.3739 9.24692 18.6613 11.9253 14.6528C14.6036 10.6444 18.4105 7.52017 22.8644 5.67528C27.3184 3.83039 32.2194 3.34769 36.9477 4.2882C41.676 5.22872 46.0192 7.55021 49.4281 10.9591C52.837 14.368 55.1585 18.7112 56.099 23.4395C57.0395 28.1678 56.5568 33.0688 54.7119 37.5228C52.867 41.9767 49.7428 45.7836 45.7344 48.4619C41.7259 51.1403 37.0133 52.5698 32.1923 52.5698C25.7299 52.5626 19.5343 49.9922 14.9647 45.4225C10.395 40.8529 7.82463 34.6573 7.81735 28.1948Z" fill="#444444"/>
</g>
<defs>
<filter id="filter0_d" x="0" y="0" width="71.8047" height="71.8094" filterUnits="userSpaceOnUse" color-interpolation-filters="sRGB">
<feFlood flood-opacity="0" result="BackgroundImageFix"/>
<feColorMatrix in="SourceAlpha" type="matrix" values="0 0 0 0 0 0 0 0 0 0 0 0 0 0 0 0 0 0 127 0"/>
<feOffset dy="4"/>
<feGaussianBlur stdDeviation="2"/>
<feColorMatrix type="matrix" values="0 0 0 0 0 0 0 0 0 0 0 0 0 0 0 0 0 0 0.25 0"/>
<feBlend mode="normal" in2="BackgroundImageFix" result="effect1_dropShadow"/>
<feBlend mode="normal" in="SourceGraphic" in2="effect1_dropShadow" result="shape"/>
</filter>
</defs>
</svg>
