<svg width="19" height="18" viewBox="0 0 19 18" fill="none" xmlns="http://www.w3.org/2000/svg">
<path d="M18 17L12.8366 11.6749C14.0395 10.3004 14.661 8.51224 14.57 6.68803C14.4789 4.86382 13.6825 3.1464 12.3488 1.89846C11.0151 0.650526 9.24866 -0.0302215 7.42243 -1.24775e-05C5.5962 0.0301965 3.8532 0.768997 2.56153 2.06036C1.26987 3.35172 0.530655 5.09455 0.500015 6.92077C0.469376 8.747 1.14971 10.5136 2.39733 11.8476C3.64495 13.1816 5.36219 13.9784 7.18637 14.0699C9.01056 14.1613 10.7989 13.5402 12.1737 12.3377L15.6527 15.8168C17 17 17.3763 17.5005 17.5 17.5C17.5 17.5 17.9126 17.0875 18 17C17.9995 17.1237 18.0874 16.9125 18 17C18.0867 17.0881 18.0005 16.8763 18 17ZM1.45336 7.04773C1.45336 5.8425 1.81075 4.66434 2.48034 3.66223C3.14993 2.66012 4.10165 1.87907 5.21513 1.41784C6.32862 0.956622 7.55387 0.835946 8.73594 1.07107C9.91801 1.3062 11.0038 1.88658 11.856 2.7388C12.7083 3.59103 13.2886 4.67683 13.5238 5.8589C13.7589 7.04097 13.6382 8.26622 13.177 9.37971C12.7158 10.4932 11.9347 11.4449 10.9326 12.1145C9.9305 12.7841 8.75234 13.1415 7.54711 13.1415C5.93151 13.1397 4.38259 12.4971 3.24019 11.3547C2.09778 10.2123 1.45518 8.66334 1.45336 7.04773Z" fill="#696565"/>
</svg>
