<svg width="24" height="27" viewBox="0 0 24 27" fill="none" xmlns="http://www.w3.org/2000/svg">
<g filter="url(#filter0_d)">
<path d="M19.8649 18.0501L16.3754 13.9066C17.5819 12.2695 18.2053 10.1397 18.114 7.96693C18.0227 5.79421 17.2238 3.74867 15.8861 2.26232C14.5483 0.77597 12.7764 -0.0348321 10.9446 0.00114827C9.11278 0.0371287 7.36445 0.917075 6.06882 2.45515C4.7732 3.99323 4.03173 6.06902 4.00099 8.24414C3.97026 10.4193 4.65267 12.5234 5.90412 14.1122C7.15556 15.701 8.87805 16.6501 10.7078 16.7591C12.5376 16.868 14.3314 16.1282 15.7104 14.696L19.2001 18.8397C19.2885 18.943 19.4077 19.0006 19.5318 19C19.6558 18.9994 19.7746 18.9406 19.8623 18.8364C19.95 18.7323 19.9995 18.5912 20 18.4439C20.0005 18.2966 19.9519 18.1551 19.8649 18.0501ZM4.95726 8.39535C4.95726 6.95987 5.31575 5.55662 5.98738 4.36305C6.65902 3.16949 7.61365 2.23922 8.73055 1.68988C9.84744 1.14055 11.0764 0.996814 12.2621 1.27686C13.4478 1.55691 14.537 2.24817 15.3918 3.26321C16.2466 4.27825 16.8288 5.57149 17.0646 6.9794C17.3005 8.3873 17.1794 9.84663 16.7168 11.1728C16.2542 12.4991 15.4707 13.6326 14.4655 14.4301C13.4604 15.2276 12.2786 15.6533 11.0697 15.6533C9.44911 15.6511 7.89546 14.8858 6.74956 13.5251C5.60365 12.1644 4.95908 10.3196 4.95726 8.39535Z" fill="#444444"/>
</g>
<defs>
<filter id="filter0_d" x="0" y="0" width="24" height="27" filterUnits="userSpaceOnUse" color-interpolation-filters="sRGB">
<feFlood flood-opacity="0" result="BackgroundImageFix"/>
<feColorMatrix in="SourceAlpha" type="matrix" values="0 0 0 0 0 0 0 0 0 0 0 0 0 0 0 0 0 0 127 0"/>
<feOffset dy="4"/>
<feGaussianBlur stdDeviation="2"/>
<feColorMatrix type="matrix" values="0 0 0 0 0 0 0 0 0 0 0 0 0 0 0 0 0 0 0.25 0"/>
<feBlend mode="normal" in2="BackgroundImageFix" result="effect1_dropShadow"/>
<feBlend mode="normal" in="SourceGraphic" in2="effect1_dropShadow" result="shape"/>
</filter>
</defs>
</svg>
