<svg width="14" height="13" viewBox="0 0 14 13" fill="none" xmlns="http://www.w3.org/2000/svg">
<path d="M12.8889 12.1352H0.444445C0.32657 12.1352 0.213524 12.1019 0.130175 12.0427C0.0468252 11.9835 0 11.9032 0 11.8194C0 11.7357 0.0468252 11.6554 0.130175 11.5961C0.213524 11.5369 0.32657 11.5037 0.444445 11.5037H12.8889C13.0068 11.5037 13.1198 11.5369 13.2032 11.5961C13.2865 11.6554 13.3333 11.7357 13.3333 11.8194C13.3333 11.9032 13.2865 11.9835 13.2032 12.0427C13.1198 12.1019 13.0068 12.1352 12.8889 12.1352Z" fill="#444444"/>
<path d="M12.8889 6.3835H0.444445C0.32657 6.3835 0.213524 6.35023 0.130175 6.29101C0.0468252 6.23179 0 6.15147 0 6.06773C0 5.98398 0.0468252 5.90366 0.130175 5.84444C0.213524 5.78522 0.32657 5.75195 0.444445 5.75195H12.8889C13.0068 5.75195 13.1198 5.78522 13.2032 5.84444C13.2865 5.90366 13.3333 5.98398 13.3333 6.06773C13.3333 6.15147 13.2865 6.23179 13.2032 6.29101C13.1198 6.35023 13.0068 6.3835 12.8889 6.3835Z" fill="#444444"/>
<path d="M12.8889 0.631546H0.444445C0.32657 0.631546 0.213524 0.598277 0.130175 0.539058C0.0468252 0.479839 0 0.399521 0 0.315773C0 0.232025 0.0468252 0.151706 0.130175 0.0924875C0.213524 0.0332686 0.32657 0 0.444445 0H12.8889C13.0068 0 13.1198 0.0332686 13.2032 0.0924875C13.2865 0.151706 13.3333 0.232025 13.3333 0.315773C13.3333 0.399521 13.2865 0.479839 13.2032 0.539058C13.1198 0.598277 13.0068 0.631546 12.8889 0.631546Z" fill="#444444"/>
</svg>
