<svg width="1782" height="437" viewBox="0 0 1782 437" fill="none" xmlns="http://www.w3.org/2000/svg">
<path d="M468.834 154.864L648.914 154.864V188.388L578.009 188.388V377.369H539.145V188.388H468.537L468.834 154.864ZM641.201 216.275H674.428V247.426H675.022C676.208 242.975 678.285 238.822 681.252 234.669C684.219 230.515 687.779 226.658 692.229 223.395C696.382 219.835 701.129 217.165 706.469 215.088C711.513 213.011 716.853 211.825 722.193 211.825C726.346 211.825 729.313 212.121 730.796 212.121C732.28 212.418 734.06 212.715 735.543 212.715V246.832C733.17 246.239 730.5 245.942 727.83 245.646C725.16 245.349 722.786 245.052 720.116 245.052C714.183 245.052 708.546 246.239 703.206 248.612C697.866 250.986 693.415 254.546 689.262 258.996C685.405 263.743 682.142 269.379 679.768 276.203C677.395 283.026 676.208 291.037 676.208 299.937V376.479H640.608L641.201 216.275ZM898.714 377.369H863.706V354.821H863.113C858.663 363.128 852.136 369.358 843.532 374.402C834.929 379.445 826.029 381.819 817.128 381.819C796.064 381.819 780.637 376.775 771.144 366.095C761.65 355.711 756.904 339.691 756.904 318.627V216.275L792.504 216.275V315.067C792.504 329.308 795.174 339.394 800.811 345.031C806.151 350.965 813.865 353.931 823.655 353.931C831.072 353.931 837.302 352.745 842.346 350.371C847.389 347.998 851.542 345.031 854.509 341.174C857.773 337.318 859.849 332.571 861.333 327.231C862.816 321.891 863.409 315.957 863.409 309.727V216.275H899.01V377.369H898.714ZM959.235 325.747C960.422 336.131 964.278 343.251 971.102 347.701C977.925 351.855 986.232 353.931 995.726 353.931C998.989 353.931 1002.85 353.635 1007 353.041C1011.15 352.448 1015.31 351.558 1018.87 350.075C1022.72 348.591 1025.69 346.515 1028.06 343.548C1030.44 340.581 1031.62 337.021 1031.33 332.571C1031.03 328.121 1029.55 324.264 1026.28 321.297C1023.02 318.331 1019.16 316.254 1014.42 314.177C1009.67 312.397 1004.03 310.914 997.802 309.727C991.572 308.54 985.342 307.057 978.815 305.574C972.289 304.09 965.762 302.31 959.532 300.234C953.301 298.157 947.961 295.487 942.918 291.63C938.171 288.07 934.018 283.62 931.348 277.983C928.381 272.346 926.897 265.819 926.897 257.512C926.897 248.612 928.974 241.492 933.424 235.559C937.578 229.625 943.214 224.878 949.741 221.318C956.268 217.758 963.685 215.088 971.695 213.605C979.705 212.121 987.419 211.528 994.539 211.528C1002.85 211.528 1010.86 212.418 1018.27 214.198C1025.69 215.978 1032.81 218.648 1038.74 222.802C1044.97 226.658 1050.02 231.999 1053.87 238.229C1058.03 244.459 1060.4 252.172 1061.59 261.073H1024.5C1022.72 252.469 1018.87 246.832 1012.93 243.866C1006.7 240.899 999.879 239.415 991.869 239.415C989.496 239.415 986.232 239.712 982.969 240.009C979.409 240.602 976.442 241.196 973.179 242.382C970.212 243.569 967.542 245.349 965.465 247.426C963.388 249.502 962.202 252.469 962.202 256.029C962.202 260.479 963.685 263.743 966.652 266.413C969.618 269.083 973.475 271.16 978.519 273.236C983.265 275.016 988.902 276.5 995.132 277.686C1001.36 278.873 1007.89 280.356 1014.42 281.84C1020.94 283.323 1027.17 285.103 1033.4 287.18C1039.63 289.257 1045.27 291.927 1050.02 295.783C1054.76 299.344 1058.92 303.794 1061.88 309.134C1064.85 314.474 1066.33 321.297 1066.33 329.011C1066.33 338.504 1064.26 346.515 1059.81 353.338C1055.36 359.865 1049.72 365.502 1042.9 369.655C1036.07 373.809 1028.06 376.775 1019.76 378.852C1011.15 380.632 1002.85 381.819 994.539 381.819C984.452 381.819 974.959 380.632 966.355 378.259C957.751 375.885 950.038 372.325 943.808 367.875C937.578 363.128 932.534 357.491 928.974 350.371C925.414 343.548 923.337 335.241 923.041 325.451H958.938V325.747H959.235ZM1076.42 216.275L1103.42 216.275V167.62H1139.02V215.978H1171.06V242.382H1139.02V328.418C1139.02 332.274 1139.32 335.241 1139.61 338.208C1139.91 340.878 1140.8 343.251 1141.69 345.031C1142.88 346.811 1144.66 348.295 1146.73 349.185C1149.11 350.075 1152.07 350.668 1156.23 350.668C1158.6 350.668 1161.27 350.668 1163.64 350.371C1166.02 350.075 1168.69 349.778 1171.06 349.185V376.775C1167.2 377.369 1163.35 377.665 1159.49 377.962C1155.63 378.555 1152.07 378.555 1147.92 378.555C1138.43 378.555 1131.01 377.665 1125.37 375.885C1119.74 374.105 1115.29 371.435 1112.02 368.172C1108.76 364.612 1106.68 360.458 1105.49 355.415C1104.31 350.371 1103.71 344.141 1103.42 337.614V242.679H1076.42V215.682V216.275ZM1195.98 216.275H1229.5V238.229H1230.1C1235.14 228.735 1241.96 222.208 1250.86 218.055C1259.77 213.902 1269.26 211.825 1279.94 211.825C1292.7 211.825 1303.67 213.902 1313.17 218.648C1322.66 223.098 1330.37 229.032 1336.6 237.042C1342.83 244.756 1347.58 253.952 1350.55 264.336C1353.51 274.72 1355.29 285.993 1355.29 297.563C1355.29 308.54 1353.81 318.924 1351.14 329.011C1348.17 339.098 1344.02 348.295 1338.38 356.008C1332.75 363.722 1325.63 369.952 1316.73 374.698C1307.83 379.445 1297.74 381.819 1285.87 381.819C1280.83 381.819 1275.49 381.225 1270.45 380.335C1265.4 379.445 1260.36 377.962 1255.61 375.885C1250.86 373.809 1246.41 371.138 1242.56 367.875C1238.4 364.612 1235.14 360.755 1232.47 356.601H1231.88V437H1196.28V216.275H1195.98ZM1320.29 296.97C1320.29 289.85 1319.4 282.73 1317.32 275.906C1315.54 269.083 1312.57 263.149 1308.72 257.809C1304.86 252.469 1300.11 248.316 1294.77 245.052C1289.14 241.789 1282.61 240.305 1275.49 240.305C1260.66 240.305 1249.38 245.349 1241.67 255.733C1234.25 266.116 1230.39 280.06 1230.39 297.267C1230.39 305.574 1231.28 312.99 1233.36 319.814C1235.44 326.637 1238.11 332.571 1242.26 337.614C1246.12 342.658 1250.86 346.515 1256.5 349.481C1262.14 352.448 1268.37 353.931 1275.79 353.931C1284.09 353.931 1290.62 352.151 1296.26 348.888C1301.89 345.625 1306.34 341.174 1310.2 336.131C1313.76 330.791 1316.43 324.857 1317.91 318.034C1319.4 310.914 1320.29 304.09 1320.29 296.97V296.97ZM1382.88 154.864H1418.49V188.388H1382.88V154.864ZM1382.88 216.275H1418.49V377.369H1382.88V216.275ZM1450.23 154.864H1485.83V377.369H1450.23V154.864ZM1594.41 381.819C1581.66 381.819 1570.09 379.742 1560 375.292C1549.91 370.842 1541.6 365.205 1534.48 357.788C1527.66 350.371 1522.32 341.174 1518.76 330.791C1515.2 320.407 1513.12 308.837 1513.12 296.673C1513.12 284.51 1514.9 273.236 1518.76 262.853C1522.32 252.469 1527.66 243.569 1534.48 235.855C1541.31 228.439 1549.91 222.505 1560 218.352C1570.09 214.198 1581.66 211.825 1594.41 211.825C1607.17 211.825 1618.74 213.902 1628.83 218.352C1638.91 222.505 1647.22 228.439 1654.34 235.855C1661.16 243.272 1666.5 252.469 1670.06 262.853C1673.62 273.236 1675.7 284.51 1675.7 296.673C1675.7 309.134 1673.92 320.407 1670.06 330.791C1666.21 341.174 1661.16 350.075 1654.34 357.788C1647.52 365.205 1638.91 371.138 1628.83 375.292C1618.74 379.445 1607.47 381.819 1594.41 381.819ZM1594.41 353.635C1602.13 353.635 1609.25 351.855 1614.88 348.591C1620.82 345.328 1625.27 340.878 1629.12 335.538C1632.98 330.198 1635.65 323.967 1637.43 317.441C1639.21 310.617 1640.1 303.794 1640.1 296.673C1640.1 289.85 1639.21 283.026 1637.43 276.203C1635.65 269.379 1632.98 263.446 1629.12 258.106C1625.27 252.766 1620.52 248.612 1614.88 245.349C1608.95 242.086 1602.13 240.305 1594.41 240.305C1586.7 240.305 1579.58 242.086 1573.94 245.349C1568.01 248.612 1563.56 253.062 1559.7 258.106C1555.85 263.446 1553.18 269.379 1551.4 276.203C1549.62 283.026 1548.73 289.85 1548.73 296.673C1548.73 303.794 1549.62 310.617 1551.4 317.441C1553.18 324.264 1555.85 330.198 1559.7 335.538C1563.56 340.878 1568.31 345.328 1573.94 348.591C1579.88 352.151 1586.7 353.635 1594.41 353.635ZM1686.38 216.275H1713.38V167.62L1748.98 167.62V215.978H1781.02V242.382H1748.98V328.418C1748.98 332.274 1749.28 335.241 1749.57 338.208C1749.87 340.878 1750.76 343.251 1751.65 345.031C1752.84 346.811 1754.62 348.295 1756.69 349.185C1759.07 350.075 1762.03 350.668 1766.19 350.668C1768.56 350.668 1771.23 350.668 1773.6 350.371C1775.98 350.075 1778.65 349.778 1781.02 349.185V376.775C1777.16 377.369 1773.31 377.665 1769.45 377.962C1765.59 378.555 1762.03 378.555 1757.88 378.555C1748.39 378.555 1740.97 377.665 1735.33 375.885C1729.7 374.105 1725.25 371.435 1721.98 368.172C1718.72 364.612 1716.64 360.458 1715.46 355.415C1714.27 350.371 1713.68 344.141 1713.38 337.614V242.679L1686.38 242.679V215.682V216.275Z" fill="white"/>
<path d="M427.299 154.864L264.426 154.864L214.288 0L163.853 154.864L0.979492 154.567L132.703 250.392L82.268 405.256L213.991 309.43L345.714 405.256L295.576 250.392L427.299 154.864Z" fill="#00B67A"/>
<path d="M306.85 285.4L295.576 250.392L214.288 309.43L306.85 285.4Z" fill="#005128"/>
</svg>
